<?xml version="1.0" encoding="utf-8"?>
<!-- Generator: Adobe Illustrator 16.0.0, SVG Export Plug-In . SVG Version: 6.00 Build 0)  -->
<!DOCTYPE svg PUBLIC "-//W3C//DTD SVG 1.1//EN" "http://www.w3.org/Graphics/SVG/1.1/DTD/svg11.dtd">
<svg version="1.1" xmlns="http://www.w3.org/2000/svg" xmlns:xlink="http://www.w3.org/1999/xlink" x="0px" y="0px" width="2800px"
	 height="1960px" viewBox="0 0 2800 1960" enable-background="new 0 0 2800 1960" xml:space="preserve">
<g id="Guides_For_Artboard_1_">
</g>
<g id="Guides_For_Artboard">
	<g>
		<rect x="7.2" fill="#BED1A6" width="2800" height="1960"/>
		<g>
			<g>
				<g>
					<g>
						<polygon fill="#8A9B72" points="1885.9,1100 1314,1100 1600,715.5 						"/>
						<path fill="#006837" d="M1891.5,1102.8h-583.1L1600,710.7L1891.5,1102.8z M1319.7,1097.1h560.5L1600,720.2L1319.7,1097.1z"/>
					</g>
				</g>
				<g>
					<g>
						<polygon fill="#BDC6A7" points="1598.1,718.5 1881.7,1100 1598.1,1100 						"/>
					</g>
				</g>
				<g>
					<g>
						<polygon fill="#EFFFDD" points="1681.3,830.9 1600,721.5 1518.6,830.9 1562.9,865.3 1586.6,849.4 1652.5,903.6 						"/>
					</g>
				</g>
			</g>
			<g>
				<g>
					<g>
						<polygon fill="#8A9B72" points="1665.1,1099.5 905.6,1099.5 1285.4,588.8 						"/>
						<path fill="#006837" d="M1670.8,1102.3H900L1285.4,584L1670.8,1102.3z M911.3,1096.6h748.2l-374.1-503.1L911.3,1096.6z"/>
					</g>
				</g>
				<g>
					<g>
						<polygon fill="#BDC6A7" points="1282.9,592.8 1659.7,1099.5 1282.9,1099.5 						"/>
					</g>
				</g>
				<g>
					<g>
						<polygon fill="#EFFFDD" points="1393.5,742.1 1285.4,596.7 1177.3,742.1 1236.2,787.8 1267.7,766.7 1355.2,838.7 						"/>
					</g>
				</g>
			</g>
			<g>
				<g>
					<g>
						<g>
							<path fill="#EFFFDD" d="M1919.5,1332.8l-606.2-349.1c0,0-77.9-53.3-166.1,2.6l-575.6,346.5H1919.5z"/>
							<path fill="#006837" d="M1930.1,1335.6H561.4l584.3-351.8c27.1-17.2,56.1-25.9,86.1-25.9c47.5,0,80.6,21.7,83,23.4
								L1930.1,1335.6z M581.8,1329.9h1327L1311.7,986l-0.1-0.1c-0.3-0.2-33.4-22.4-79.8-22.4c-28.9,0-56.8,8.4-83.1,25.1
								L581.8,1329.9z"/>
						</g>
					</g>
				</g>
				<g>
					<g>
						<g>
							<path fill="#DAF2C6" d="M1245.5,967.6c39,2.9,65.9,22.2,65.9,22.2l590.3,339.7h-656.2V967.6z"/>
						</g>
					</g>
				</g>
			</g>
			<g>
				<path fill="#8A9B72" d="M2298.8,1339.6H405c-21.9,0.2-39.6,18.1-39.6,40c0,22.1,17.9,40,40,40h81.8v0.3H538
					c22.1,0,40,17.9,40,40c0,22.1-17.9,40-40,40h-35.8c-22.1,0-40,17.9-40,40c0,22.1,17.9,40,40,40h1722.4c22.1,0,40-17.9,40-40
					c0-22.1-17.9-40-40-40h-39.5c-22.1,0-40-17.9-40-40c0-22.1,17.9-40,40-40h55.4v-0.3h57.9c22.1,0,40-17.9,40-40
					C2338.4,1357.7,2320.7,1339.8,2298.8,1339.6z"/>
				<path fill="#006837" d="M2224.6,1583H502.2c-23.6,0-42.9-19.2-42.9-42.9c0-23.6,19.2-42.9,42.9-42.9H538
					c20.5,0,37.2-16.7,37.2-37.2c0-20.5-16.7-37.2-37.2-37.2h-53.7v-0.3h-79c-23.6,0-42.9-19.2-42.9-42.9c0-23.4,19-42.6,42.4-42.9
					h1893.9c23.4,0.2,42.5,19.5,42.5,42.9c0,23.6-19.2,42.9-42.9,42.9h-55.1v0.3h-58.3c-20.5,0-37.2,16.7-37.2,37.2
					c0,20.5,16.7,37.2,37.2,37.2h39.5c23.6,0,42.9,19.2,42.9,42.9C2267.5,1563.7,2248.2,1583,2224.6,1583z M502.2,1502.9
					c-20.5,0-37.2,16.7-37.2,37.2c0,20.5,16.7,37.2,37.2,37.2h1722.4c20.5,0,37.2-16.7,37.2-37.2c0-20.5-16.7-37.2-37.2-37.2h-39.5
					c-23.6,0-42.9-19.2-42.9-42.9c0-23.6,19.2-42.9,42.9-42.9h52.6v-0.3h60.7c20.5,0,37.2-16.7,37.2-37.2c0-20.3-16.5-37-36.8-37.2
					l-1893.8,0c-20.3,0.2-36.8,16.9-36.8,37.2c0,20.5,16.7,37.2,37.2,37.2H490v0.3h48c23.6,0,42.9,19.2,42.9,42.9
					c0,23.6-19.2,42.9-42.9,42.9H502.2z"/>
			</g>
			<g>
				<g>
					<path fill="#BED1A6" d="M2092,1425.8h-78.8c-5.8,0-10.5-4.7-10.5-10.5s4.7-10.5,10.5-10.5h78.8c5.8,0,10.5,4.7,10.5,10.5
						S2097.8,1425.8,2092,1425.8z"/>
				</g>
			</g>
			<g>
				<g>
					<path fill="#BED1A6" d="M2256,1384.9h-66c-4.8,0-8.8-3.9-8.8-8.8s3.9-8.8,8.8-8.8h66c4.8,0,8.8,3.9,8.8,8.8
						S2260.8,1384.9,2256,1384.9z"/>
				</g>
			</g>
			<g>
				<g>
					<path fill="#BED1A6" d="M1758.8,1551.9H888.4c-7.3,0-13.2-5.9-13.2-13.2c0-7.3,5.9-13.2,13.2-13.2h870.4
						c7.3,0,13.2,5.9,13.2,13.2C1772,1545.9,1766.1,1551.9,1758.8,1551.9z"/>
				</g>
			</g>
			<g>
				<g>
					<g>
						<g>
							<path fill="#EFFFDD" d="M1566.2,1332.8L960,983.6c0,0-77.9-53.3-166.1,2.6l-575.5,346.5H1566.2z"/>
							<path fill="#006837" d="M1576.8,1335.6H208.2l584.3-351.8c27.1-17.2,56.1-25.9,86.1-25.9c47.5,0,80.6,21.7,83,23.4
								L1576.8,1335.6z M228.6,1329.9h1327L958.5,986l-0.1-0.1c-0.3-0.2-33.4-22.4-79.9-22.4c-28.9,0-56.8,8.4-83.1,25.1
								L228.6,1329.9z"/>
						</g>
					</g>
				</g>
				<g>
					<g>
						<g>
							<path fill="#DAF2C6" d="M892.3,967c39,2.9,65.9,22.2,65.9,22.2l589.7,339.3H892.3V967z"/>
						</g>
					</g>
				</g>
			</g>
			<g>
				<g>
					<g>
						<g>
							<path fill="#EFFFDD" d="M2596.4,1332.8l-676.3-390.9c0,0-86.9-59.7-185.3,2.9l-642.2,388H2596.4z"/>
							<path fill="#006837" d="M2607,1335.7H1082.5l650.9-393.2c30.2-19.2,62.5-29,95.9-29c52.9,0,89.8,24.3,92.4,26.1L2607,1335.7z
								 M1102.8,1330h1483l-667.3-385.7l-0.1-0.1c-0.4-0.3-37.4-25.2-89.3-25.2c-32.3,0-63.5,9.5-92.9,28.1L1102.8,1330z"/>
						</g>
					</g>
				</g>
				<g>
					<g>
						<g>
							<path fill="#DAF2C6" d="M1844.6,923.3c43.6,3.2,73.7,25,73.7,25l659.7,381h-733.4V923.3z"/>
						</g>
					</g>
				</g>
			</g>
			<g>
				<g>
					<path fill="#006837" d="M2602.2,1347.8l-2404.4-1.1c-7.3,0-13.2-5.9-13.2-13.2c0-7.3,5.9-13.2,13.2-13.2l2404.4,1.1
						c7.3,0,13.2,5.9,13.2,13.2S2609.5,1347.8,2602.2,1347.8z"/>
				</g>
			</g>
			<g>
				<g>
					<g>
						<path fill="#DF72FF" d="M937.4,1334.7l-38.2-192.8c-5.5-8.5-11.6-0.1-11.6-0.1l-40.2,192.9c-2.8,0.5-4.8,2.9-4.8,5.8
							c0,3.3,2.7,5.9,5.9,5.9h87.7c3.3,0,5.9-2.7,5.9-5.9C942.1,1337.6,940.1,1335.2,937.4,1334.7z"/>
						<path fill="#662D91" d="M936.2,1347.4h-87.7c-3.8,0-6.9-3.1-6.9-6.9c0-3.1,2.1-5.8,5-6.7l40.1-192.5l0.1-0.2
							c0.1-0.2,3-4.1,6.9-4.1c2.4,0,4.5,1.4,6.3,4.2l0.1,0.2l0,0.2l38.1,192.1c2.9,0.9,4.9,3.6,4.9,6.6
							C943.1,1344.3,940,1347.4,936.2,1347.4z M888.5,1142.2l-40.3,193.3l-0.7,0.1c-2.3,0.4-4,2.5-4,4.9c0,2.7,2.2,5,5,5h87.7
							c2.7,0,5-2.2,5-5c0-2.3-1.7-4.4-4-4.9l-0.6-0.1l-38.3-193.2c-1.4-2.1-3-3.2-4.6-3.2C891.2,1139.1,889.1,1141.6,888.5,1142.2z"
							/>
					</g>
				</g>
				<g>
					<g>
						<path fill="#E8ABFF" d="M893.5,1139.2c-2.6,0.7-4.5,3.3-4.5,3.3l-39.8,193.8c-2.8-0.4-4.3,1.6-4.3,3.6c0,3.2,2.8,4.1,6.5,4.1
							h42.1V1139.2z"/>
					</g>
				</g>
				<g>
					<g>
						<path fill="#662D91" d="M903.6,1313c0.6,0.6,1.8,0.6,2.3,0c0.6-0.6,0.3-1.5-0.3-2.1l-11.3-11.3l0-20.1l9.2,9.2
							c0.6,0.6,1.5,0.6,2.1,0c0.6-0.6,0.6-1.5,0-2.1l-11.3-11.3l0-24.2c0-1.2-0.9-2.1-2.1-2.1c-1.2,0-2.1,0.9-2.1,2.1v24.2
							l-11.3,11.3c-0.6,0.6-0.6,1.5,0,2.1s1.5,0.6,2.1,0l9.2-9.2l0,20.1l-11.3,11.3c-0.6,0.6-0.6,1.5,0,2.1c0.6,0.6,1.5,0.6,2.1,0
							l9.2-9.2l0,19.5l-11.3,11.3c-0.6,0.6-0.6,1.5,0,2.1c0.6,0.6,1.5,0.6,2.1,0l9.2-9.2l0,52.9c0,1.2,1,2.1,2.1,2.1
							c1.2,0,2.1-1,2.1-2.1l0-52.9l9.2,9.2c0.6,0.6,1.5,0.6,2.1,0c0.6-0.6,0.6-1.5,0-2.1l-11.3-11.3l0-19.5L903.6,1313z"/>
						<path fill="#662D91" d="M892.3,1382.7c-1.4,0-2.5-1.1-2.5-2.5l0-52l-8.6,8.6c-0.7,0.7-1.9,0.7-2.6,0c-0.7-0.7-0.7-1.9,0-2.6
							l11.2-11.2l0-18.5l-8.6,8.6c-0.7,0.7-1.9,0.7-2.6,0c-0.3-0.3-0.5-0.8-0.5-1.3c0-0.5,0.2-0.9,0.5-1.3l11.2-11.2l0-19.2
							l-8.6,8.6c-0.7,0.7-1.9,0.7-2.6,0c-0.3-0.3-0.5-0.8-0.5-1.3c0-0.5,0.2-0.9,0.5-1.3l11.2-11.2v-24c0-1.4,1.1-2.5,2.5-2.5
							c1.4,0,2.5,1.1,2.5,2.5l0,24l11.2,11.2c0.3,0.3,0.5,0.8,0.5,1.3c0,0.5-0.2,0.9-0.5,1.3c-0.7,0.7-1.9,0.7-2.6,0l-8.6-8.6
							l0,19.2l11.2,11.2c0.7,0.7,1,1.9,0.3,2.6c-0.3,0.3-0.9,0.5-1.4,0.5l0,0c-0.6,0-1.1-0.2-1.4-0.5l-8.6-8.6l0,18.5l11.2,11.2
							c0.3,0.3,0.5,0.8,0.5,1.3c0,0.5-0.2,0.9-0.5,1.3c-0.7,0.7-1.9,0.7-2.6,0l-8.6-8.6l0,52
							C894.7,1381.6,893.6,1382.7,892.3,1382.7z M890.5,1326.6l0,53.7c0,1,0.8,1.8,1.8,1.8c1,0,1.8-0.8,1.8-1.8l0-53.7l9.8,9.8
							c0.4,0.4,1.2,0.4,1.6,0c0.2-0.2,0.3-0.5,0.3-0.8c0-0.3-0.1-0.6-0.3-0.8l-11.4-11.4l0-20.5l9.8,9.8c0.2,0.2,0.5,0.3,0.9,0.3
							l0,0c0.4,0,0.7-0.1,0.9-0.3c0.4-0.4,0.2-1.1-0.3-1.6l-11.4-11.4l0-21.1l9.8,9.8c0.4,0.4,1.2,0.4,1.6,0
							c0.2-0.2,0.3-0.5,0.3-0.8s-0.1-0.6-0.3-0.8l-11.4-11.4l0-24.3c0-1-0.8-1.8-1.8-1.8c-1,0-1.8,0.8-1.8,1.8v24.3l-11.4,11.4
							c-0.2,0.2-0.3,0.5-0.3,0.8c0,0.3,0.1,0.6,0.3,0.8c0.4,0.4,1.2,0.4,1.6,0l9.8-9.8l0,21.1l-11.4,11.4c-0.2,0.2-0.3,0.5-0.3,0.8
							c0,0.3,0.1,0.6,0.3,0.8c0.4,0.4,1.2,0.4,1.6,0l9.8-9.8l0,20.5l-11.4,11.4c-0.4,0.4-0.4,1.2,0,1.6c0.4,0.4,1.2,0.4,1.6,0
							L890.5,1326.6z"/>
					</g>
				</g>
				<g>
					<path fill="#662D91" d="M900,1192.2c-0.1,0-0.3,0-0.4-0.1c-6.6-3.7-6.7-11.6-6.7-11.9c0-0.4,0.3-0.7,0.7-0.7h0
						c0.4,0,0.7,0.3,0.7,0.7c0,0.1,0.1,7.3,5.9,10.6c0.4,0.2,0.5,0.7,0.3,1C900.5,1192.1,900.3,1192.2,900,1192.2z"/>
				</g>
				<g>
					<path fill="#662D91" d="M914.5,1261.5c-0.1,0-0.2,0-0.3-0.1c-5.9-3-6.5-9.2-6.5-9.5c0-0.4,0.3-0.8,0.7-0.8
						c0.4,0,0.8,0.3,0.8,0.7c0,0.1,0.5,5.7,5.7,8.3c0.4,0.2,0.5,0.6,0.3,1C915.1,1261.4,914.8,1261.5,914.5,1261.5z"/>
				</g>
				<g>
					<path fill="#662D91" d="M881.3,1231.1c-0.3,0-0.5-0.2-0.7-0.4c-0.2-0.4,0-0.8,0.3-1c4.3-2.1,5.2-8.3,5.2-8.3
						c0.1-0.4,0.4-0.7,0.8-0.6c0.4,0.1,0.7,0.4,0.6,0.8c0,0.3-1,7-6,9.5C881.5,1231.1,881.4,1231.1,881.3,1231.1z"/>
				</g>
				<g>
					<path fill="#662D91" d="M861.2,1316.7c-0.2,0-0.5-0.1-0.6-0.3c-0.2-0.3-0.1-0.8,0.2-1c4.8-3,5.7-11.3,5.7-11.3
						c0-0.4,0.4-0.7,0.8-0.7c0.4,0,0.7,0.4,0.7,0.8c0,0.4-1,9-6.4,12.4C861.5,1316.7,861.3,1316.7,861.2,1316.7z"/>
				</g>
			</g>
			<g>
				<g>
					<path fill="#BDC6A7" d="M485.2,1397.9h-66c-4.8,0-8.8-3.9-8.8-8.8s3.9-8.8,8.8-8.8h66c4.8,0,8.8,3.9,8.8,8.8
						S490,1397.9,485.2,1397.9z"/>
				</g>
			</g>
			<g>
				<g>
					<path fill="#BDC6A7" d="M735.8,1391.2h-66c-4.8,0-8.8-3.9-8.8-8.8s3.9-8.8,8.8-8.8h66c4.8,0,8.8,3.9,8.8,8.8
						S740.6,1391.2,735.8,1391.2z"/>
				</g>
			</g>
			<g>
				<g>
					<path fill="#BDC6A7" d="M667.9,1454.7h-66c-4.8,0-8.8-3.9-8.8-8.8s3.9-8.8,8.8-8.8h66c4.8,0,8.8,3.9,8.8,8.8
						S672.8,1454.7,667.9,1454.7z"/>
				</g>
			</g>
			<g>
				<g>
					<g>
						<circle fill="#FFAF23" cx="1837.9" cy="1256.4" r="104.5"/>
						<path fill="#603813" d="M1837.9,1362.4c-58.4,0-106-47.5-106-106s47.5-106,106-106s106,47.5,106,106
							S1896.4,1362.4,1837.9,1362.4z M1837.9,1153.4c-56.8,0-103,46.2-103,103s46.2,103,103,103s103-46.2,103-103
							S1894.7,1153.4,1837.9,1153.4z"/>
					</g>
				</g>
				<g>
					<path fill="#FFCA76" d="M1838.3,1154.6c-56.2,0-101.8,45.6-101.8,101.8s45.6,101.8,101.8,101.8V1154.6z"/>
				</g>
				<g>
					<g>
						<path fill="#603813" d="M1856.6,1276.5c0-1.6-1.3-2.8-2.8-2.8c-1.6,0-2.8,1.3-2.8,2.8c0,0.2,0,0.3,0,0.5
							c-0.2,5.8-4.1,10.6-9.5,12.1l0-37.4c8.6-1.7,15.1-9.3,15.1-18.4c0-1.6-1.3-2.8-2.8-2.8c-1.6,0-2.8,1.3-2.8,2.8
							c0,0.2,0,0.3,0,0.5c-0.2,5.8-4.1,10.6-9.5,12.1l0-25.8c0-2-1.6-3.6-3.6-3.6s-3.6,1.6-3.6,3.6l0,25.8
							c-5.3-1.5-9.2-6.3-9.4-12.1c0-0.2,0-0.3,0-0.5c0-1.6-1.3-2.8-2.8-2.8c-1.6,0-2.8,1.3-2.8,2.8c0,9.1,6.5,16.7,15.1,18.4l0,37.4
							c-5.3-1.5-9.2-6.3-9.5-12.1c0-0.2,0-0.3,0-0.5c0-1.6-1.3-2.8-2.8-2.8c-1.6,0-2.8,1.3-2.8,2.8c0,9.1,6.5,16.7,15.1,18.4l0,40.2
							c-5.3-1.5-9.3-6.3-9.5-12.1c0-0.2,0-0.3,0-0.5c0-1.6-1.3-2.8-2.8-2.8c-1.6,0-2.8,1.3-2.8,2.8c0,9.1,6.5,16.7,15.1,18.4l0,98.6
							c0,2,1.6,3.6,3.6,3.6s3.6-1.6,3.6-3.6l0-98.6c8.6-1.7,15.1-9.3,15.1-18.4c0-1.6-1.3-2.8-2.8-2.8c-1.6,0-2.8,1.3-2.8,2.8
							c0,0.2,0,0.3,0,0.5c-0.2,5.8-4.1,10.6-9.5,12.1l0-40.2C1850.1,1293.2,1856.6,1285.6,1856.6,1276.5z"/>
					</g>
				</g>
				<g>
					<path fill="#603813" d="M1909.6,1214.5c-0.3,0-0.5-0.1-0.7-0.3c-0.5-0.4-0.5-1.1-0.1-1.6c2.7-3.1,3.8-6.2,3.3-9
						c-1-5.1-6.8-8.3-6.8-8.3c-0.5-0.3-0.7-1-0.5-1.5c0.3-0.5,1-0.8,1.5-0.5c0.3,0.1,6.8,3.7,8,9.8c0.7,3.6-0.6,7.3-3.8,10.9
						C1910.2,1214.4,1909.9,1214.5,1909.6,1214.5z"/>
				</g>
				<g>
					<path fill="#603813" d="M1885,1251c-0.2,0-0.4-0.1-0.6-0.2c-0.5-0.3-0.6-1-0.3-1.5c2.3-3.3,3.1-6.5,2.3-9.4
						c-1.4-5-7.2-7.7-7.3-7.8c-0.6-0.3-0.8-0.9-0.6-1.5c0.3-0.6,0.9-0.8,1.5-0.6c0.3,0.1,6.8,3.1,8.5,9.2c1,3.5,0.1,7.3-2.6,11.2
						C1885.7,1250.8,1885.4,1251,1885,1251z"/>
				</g>
				<g>
					<path fill="#603813" d="M1801.1,1271.8c-0.2,0-0.3,0-0.5-0.1c-5.5-2.7-8.5-6.2-9-10.2c-0.9-6.6,5.4-12.2,5.7-12.4
						c0.5-0.4,1.2-0.4,1.6,0.1s0.4,1.2-0.1,1.6c-0.1,0.1-5.7,5.1-5,10.5c0.4,3.3,3.1,6.1,7.8,8.5c0.5,0.3,0.8,0.9,0.5,1.5
						C1801.9,1271.6,1801.5,1271.8,1801.1,1271.8z"/>
				</g>
				<g>
					<path fill="#603813" d="M1923.6,1278.8c-0.3,0-0.5-0.1-0.8-0.3c-0.5-0.4-0.5-1.1-0.1-1.6c10.8-11.8,0.5-22.6,0-23
						c-0.4-0.4-0.4-1.1,0-1.6c0.4-0.4,1.1-0.4,1.6,0c0.1,0.1,12.3,12.7,0,26.1C1924.2,1278.6,1923.9,1278.8,1923.6,1278.8z"/>
				</g>
				<g>
					<path fill="#603813" d="M1751.5,1241.6c-0.5,0-1-0.3-1.1-0.8c-3.7-15.2,7.3-21,7.4-21.1c0.5-0.3,1.2-0.1,1.5,0.5
						s0.1,1.2-0.5,1.5c-0.4,0.2-9.6,5.2-6.3,18.6c0.1,0.6-0.2,1.2-0.8,1.3C1751.6,1241.6,1751.6,1241.6,1751.5,1241.6z"/>
				</g>
				<g>
					<path fill="#603813" d="M1777,1317c-0.1,0-0.2,0-0.3,0c-6.9-1.8-11.5-5-13.7-9.6c-3.1-6.6,0.1-13.4,0.2-13.7
						c0.3-0.6,0.9-0.8,1.5-0.5c0.6,0.3,0.8,0.9,0.5,1.5c0,0.1-2.8,6.2-0.2,11.8c1.9,3.9,6,6.8,12.2,8.4c0.6,0.2,1,0.8,0.8,1.4
						C1778,1316.7,1777.5,1317,1777,1317z"/>
				</g>
			</g>
			<g>
				<g>
					<g>
						<g>
							<path fill="#EFFFDD" d="M1986.9,1449.7l-562-325c0,0-72.2-49.6-153.9,2.4l-533.6,322.6H1986.9z"/>
							<path fill="#006837" d="M1997.5,1452.5H727.2l542.3-327.9c25.2-16,52.1-24.2,79.9-24.2c44,0,74.7,20.2,77,21.8L1997.5,1452.5
								z M747.5,1446.9h1228.9l-553-319.8l-0.1-0.1c-0.3-0.2-30.9-20.8-73.9-20.8c-26.7,0-52.6,7.8-76.9,23.3L747.5,1446.9z"/>
						</g>
					</g>
				</g>
				<g>
					<g>
						<g>
							<path fill="#DAF2C6" d="M1362.1,1110.8c36.1,2.7,60.9,20.7,60.9,20.7l545.6,315.3h-606.5V1110.8z"/>
						</g>
					</g>
				</g>
			</g>
			<g>
				<g>
					<g>
						<g>
							<path fill="#FFAF23" d="M2150.9,1245.3c0,16.2,13.2,29.4,29.4,29.4h31l0,0c16.2,0,29.4-13.2,29.4-29.4
								c0-16.2-13.2-29.4-29.4-29.4l0,0h-31C2164.1,1215.9,2150.9,1229.1,2150.9,1245.3z"/>
							<path fill="#603813" d="M2211.3,1276.2h-31c-17,0-30.9-13.9-30.9-30.9c0-17,13.9-30.9,30.9-30.9h31c17,0,30.9,13.9,30.9,30.9
								C2242.2,1262.4,2228.4,1276.2,2211.3,1276.2z M2180.3,1217.4c-15.4,0-27.9,12.5-27.9,27.9c0,15.4,12.5,27.9,27.9,27.9h31
								c15.4,0,27.9-12.5,27.9-27.9c0-15.4-12.5-27.9-27.9-27.9H2180.3z"/>
						</g>
					</g>
					<g>
						<g>
							<path fill="#FFCA76" d="M2190.6,1220h-10.1c-14,0-25.3,11.3-25.3,25.3c0,14,11.3,25.3,25.3,25.3h10.1V1220z"/>
						</g>
					</g>
					<g>
						<g>
							<path fill="#603813" d="M2192.4,1261.7c-8.1-1.6-14.3-8.7-14.3-17.3c0-1.5,1.2-2.7,2.7-2.7s2.7,1.2,2.7,2.7
								c0,0.2,0,0.3,0,0.4c0.2,5.4,3.9,10,8.9,11.4v-24.4c0-1.9,1.5-3.4,3.4-3.4c1.9,0,3.4,1.5,3.4,3.4l0,24.4c5-1.4,8.7-6,8.9-11.4
								c0-0.1,0-0.3,0-0.4c0-1.5,1.2-2.7,2.7-2.7c1.5,0,2.7,1.2,2.7,2.7c0,8.6-6.1,15.7-14.2,17.3l0,113.1c0,1.9-1.5,3.4-3.4,3.4
								c-1.9,0-3.4-1.5-3.4-3.4L2192.4,1261.7z"/>
						</g>
					</g>
					<g>
						<path fill="#603813" d="M2224.3,1248.3c-0.2,0-0.4-0.1-0.6-0.2c-0.5-0.3-0.6-1-0.3-1.5c2.3-3.3,3.1-6.5,2.3-9.4
							c-1.4-5.1-7.2-7.7-7.2-7.8c-0.6-0.3-0.8-0.9-0.6-1.5c0.3-0.6,0.9-0.8,1.5-0.6c0.3,0.1,6.8,3.1,8.5,9.2c1,3.5,0.1,7.3-2.6,11.2
							C2225,1248.2,2224.7,1248.3,2224.3,1248.3z"/>
					</g>
				</g>
			</g>
			<g>
				<g>
					<g>
						<path fill="#DF72FF" d="M2104.8,1347.5l-56.9-287.3c-8.3-12.6-17.2-0.2-17.2-0.2l-59.9,287.5c-4.1,0.8-7.2,4.4-7.2,8.7
							c0,4.9,4,8.9,8.9,8.9H2103c4.9,0,8.9-4,8.9-8.9C2111.9,1351.9,2108.8,1348.4,2104.8,1347.5z"/>
						<path fill="#662D91" d="M2103,1366.6h-130.7c-5.7,0-10.3-4.6-10.3-10.4c0-4.6,3.1-8.7,7.5-9.9l59.8-286.9l0.2-0.3
							c0.2-0.2,4.5-6.1,10.2-6.1c3.5,0,6.7,2.1,9.5,6.3l0.2,0.2l0.1,0.3l56.7,286.4c4.3,1.3,7.3,5.3,7.3,9.9
							C2113.4,1361.9,2108.7,1366.6,2103,1366.6z M2032,1060.6l-60.1,288.1l-1,0.2c-3.5,0.7-6,3.7-6,7.3c0,4.1,3.3,7.4,7.4,7.4H2103
							c4.1,0,7.4-3.3,7.4-7.4c0-3.5-2.5-6.5-5.9-7.2l-1-0.2l-57.1-288c-2.1-3.2-4.4-4.8-6.8-4.8
							C2036,1056,2032.8,1059.7,2032,1060.6z"/>
					</g>
				</g>
				<g>
					<g>
						<path fill="#E8ABFF" d="M2039.4,1056.2c-3.9,1.1-6.8,5-6.8,5l-59.4,288.9c-4.2-0.7-6.4,2.4-6.4,5.4c0,4.7,4.1,6.1,9.7,6.1
							h62.8V1056.2z"/>
					</g>
				</g>
				<g>
					<g>
						<path fill="#662D91" d="M2054.5,1315.2c0.9,0.9,2.6,0.9,3.5,0c0.9-0.9,0.5-2.3-0.4-3.1l-16.9-16.9v-30l13.8,13.8
							c0.9,0.9,2.3,0.9,3.1,0c0.9-0.9,0.9-2.3,0-3.1l-16.9-16.9l0-36c0-1.7-1.4-3.2-3.2-3.2c-1.7,0-3.2,1.4-3.2,3.2v36l-16.9,16.9
							c-0.9,0.9-0.9,2.3,0,3.1s2.3,0.9,3.1,0l13.8-13.8l0,30l-16.9,16.9c-0.9,0.9-0.9,2.3,0,3.1c0.9,0.9,2.3,0.9,3.1,0l13.8-13.8
							l0,29l-16.9,16.9c-0.9,0.9-0.9,2.3,0,3.1c0.9,0.9,2.3,0.9,3.1,0l13.8-13.8l0,78.8c0,1.7,1.4,3.2,3.2,3.2
							c1.7,0,3.2-1.4,3.2-3.2l0-78.8l13.8,13.8c0.9,0.9,2.3,0.9,3.1,0c0.9-0.9,0.9-2.3,0-3.1l-16.9-16.9l0-29L2054.5,1315.2z"/>
						<path fill="#662D91" d="M2037.6,1419.2c-2,0-3.7-1.7-3.7-3.7l0-77.5l-12.9,12.9c-1,1-2.8,1-3.9,0c-1.1-1.1-1.1-2.8,0-3.9
							l16.7-16.7l0-27.5l-12.9,12.9c-1,1-2.8,1-3.9,0c-1.1-1.1-1.1-2.8,0-3.9l16.7-16.7l0-28.5l-12.9,12.9c-1,1-2.8,1-3.9,0
							c-1.1-1.1-1.1-2.8,0-3.9l16.7-16.7v-35.8c0-2,1.7-3.7,3.7-3.7c2,0,3.7,1.7,3.7,3.7l0,35.8l16.7,16.7c0.5,0.5,0.8,1.2,0.8,1.9
							s-0.3,1.4-0.8,1.9c-1,1-2.8,1-3.9,0l-12.9-12.9v28.6l16.7,16.7c1,1,1.5,2.8,0.4,3.9c-0.5,0.5-1.3,0.8-2.1,0.8l0,0
							c-0.8,0-1.6-0.3-2.1-0.8l-12.9-12.9l0,27.5l16.7,16.7c0.5,0.5,0.8,1.2,0.8,1.9c0,0.7-0.3,1.4-0.8,1.9c-1,1-2.8,1-3.9,0
							l-12.9-12.9l0,77.5C2041.3,1417.6,2039.6,1419.2,2037.6,1419.2z M2034.9,1335.5l0,80.1c0,1.5,1.2,2.6,2.6,2.6
							c1.5,0,2.6-1.2,2.6-2.6l0-80.1l14.7,14.7c0.6,0.6,1.7,0.6,2.4,0c0.3-0.3,0.5-0.7,0.5-1.2c0-0.4-0.2-0.9-0.5-1.2l-17-17.1
							l0-30.5l14.7,14.7c0.3,0.3,0.8,0.5,1.4,0.5l0,0c0.6,0,1.1-0.2,1.4-0.5c0.6-0.6,0.3-1.7-0.4-2.4l-17.1-17.1v-31.5l14.7,14.7
							c0.6,0.6,1.7,0.6,2.4,0c0.3-0.3,0.5-0.7,0.5-1.2c0-0.4-0.2-0.9-0.5-1.2l-17.1-17.1l0-36.3c0-1.5-1.2-2.6-2.6-2.6
							c-1.5,0-2.6,1.2-2.6,2.6v36.3l-17.1,17c-0.7,0.7-0.7,1.7,0,2.4c0.6,0.6,1.7,0.6,2.4,0l14.7-14.7l0,31.5l-17.1,17.1
							c-0.7,0.7-0.7,1.7,0,2.4c0.6,0.6,1.7,0.6,2.4,0l14.7-14.7l0,30.5l-17.1,17.1c-0.7,0.7-0.7,1.7,0,2.4c0.6,0.6,1.7,0.6,2.4,0
							L2034.9,1335.5z"/>
					</g>
				</g>
				<g>
					<path fill="#662D91" d="M2049.1,1135.2c-0.2,0-0.4,0-0.5-0.1c-9.8-5.6-9.9-17.2-9.9-17.7c0-0.6,0.5-1.1,1.1-1.1h0
						c0.6,0,1.1,0.5,1.1,1.1c0,0.1,0.1,10.8,8.8,15.8c0.5,0.3,0.7,1,0.4,1.5C2049.9,1135,2049.5,1135.2,2049.1,1135.2z"/>
				</g>
				<g>
					<path fill="#662D91" d="M2070.7,1238.5c-0.2,0-0.3,0-0.5-0.1c-8.8-4.4-9.7-13.8-9.7-14.2c0-0.6,0.4-1.1,1-1.2
						c0.6-0.1,1.1,0.4,1.2,1l0,0c0,0.1,0.8,8.5,8.5,12.3c0.5,0.3,0.8,0.9,0.5,1.5C2071.5,1238.3,2071.2,1238.5,2070.7,1238.5z"/>
				</g>
				<g>
					<path fill="#662D91" d="M2021.2,1193.1c-0.4,0-0.8-0.2-1-0.6c-0.3-0.5-0.1-1.2,0.5-1.5c6.4-3.2,7.8-12.3,7.8-12.4
						c0.1-0.6,0.7-1,1.3-0.9c0.6,0.1,1,0.7,0.9,1.3c-0.1,0.4-1.6,10.4-9,14.1C2021.6,1193.1,2021.4,1193.1,2021.2,1193.1z"/>
				</g>
				<g>
					<path fill="#662D91" d="M1991.2,1320.8c-0.4,0-0.7-0.2-0.9-0.5c-0.3-0.5-0.2-1.2,0.3-1.5c7.1-4.5,8.5-16.8,8.6-16.9
						c0.1-0.6,0.6-1.1,1.2-1c0.6,0.1,1.1,0.6,1,1.2c-0.1,0.5-1.5,13.4-9.6,18.6C1991.6,1320.8,1991.4,1320.8,1991.2,1320.8z"/>
				</g>
			</g>
			<g>
				<g>
					<g>
						<path fill="#FFAF23" d="M538.3,1231.3c0,19,15.4,34.4,34.4,34.4h107l0,0c19,0,34.4-15.4,34.4-34.4c0-19-15.4-34.4-34.4-34.4
							l0,0h-107C553.7,1196.8,538.3,1212.3,538.3,1231.3z"/>
						<path fill="#603813" d="M679.7,1267.1h-107c-19.8,0-35.9-16.1-35.9-35.9c0-19.8,16.1-35.9,35.9-35.9h107
							c19.8,0,35.9,16.1,35.9,35.9C715.6,1251,699.5,1267.1,679.7,1267.1z M572.7,1198.3c-18.2,0-32.9,14.8-32.9,32.9
							c0,18.2,14.8,32.9,32.9,32.9h107c18.2,0,32.9-14.8,32.9-32.9c0-18.2-14.8-32.9-32.9-32.9H572.7z"/>
					</g>
				</g>
				<g>
					<g>
						<path fill="#FFCA76" d="M617.7,1200.7h-47.5c-16.9,0-30.6,13.7-30.6,30.6c0,16.9,13.7,30.6,30.6,30.6h47.5V1200.7z"/>
					</g>
				</g>
				<g>
					<g>
						<path fill="#603813" d="M629.8,1255.4c8.6-1.7,15.1-9.3,15.1-18.4c0-1.6-1.3-2.8-2.8-2.8s-2.8,1.3-2.8,2.8c0,0.2,0,0.3,0,0.5
							c-0.2,5.8-4.1,10.6-9.5,12.1l0-25.8c0-2-1.6-3.6-3.6-3.6c-2,0-3.6,1.6-3.6,3.6l0,25.8c-5.3-1.5-9.2-6.3-9.4-12.1
							c0-0.2,0-0.3,0-0.5c0-1.6-1.3-2.8-2.8-2.8c-1.6,0-2.8,1.3-2.8,2.8c0,9.1,6.5,16.7,15.1,18.4l0,37.4c-5.3-1.5-9.2-6.3-9.5-12.1
							c0-0.2,0-0.3,0-0.5c0-1.6-1.3-2.8-2.8-2.8c-1.6,0-2.8,1.3-2.8,2.8c0,9.1,6.5,16.7,15.1,18.4l0,144.7c0,2,1.6,3.6,3.6,3.6
							c2,0,3.6-1.6,3.6-3.6L629.8,1255.4z"/>
					</g>
				</g>
				<g>
					<path fill="#603813" d="M671,1231.3c-0.2,0-0.4-0.1-0.6-0.2c-0.5-0.3-0.6-1-0.3-1.5c2.3-3.3,3.1-6.5,2.3-9.4
						c-1.4-5-7.2-7.7-7.3-7.8c-0.6-0.3-0.8-0.9-0.6-1.5c0.3-0.6,0.9-0.8,1.5-0.6c0.3,0.1,6.8,3.1,8.5,9.2c1,3.5,0.1,7.3-2.6,11.2
						C671.7,1231.2,671.4,1231.3,671,1231.3z"/>
				</g>
				<g>
					<path fill="#603813" d="M587.1,1252.2c-0.2,0-0.3,0-0.5-0.1c-5.5-2.7-8.5-6.2-9-10.2c-0.9-6.6,5.4-12.2,5.7-12.4
						c0.5-0.4,1.2-0.4,1.6,0.1c0.4,0.5,0.4,1.2-0.1,1.6c-0.1,0.1-5.7,5.1-5,10.5c0.4,3.3,3.1,6.1,7.8,8.5c0.5,0.3,0.8,0.9,0.5,1.5
						C587.9,1251.9,587.5,1252.2,587.1,1252.2z"/>
				</g>
			</g>
			<g>
				<g>
					<path fill="#BED1A6" d="M2014.7,1480.2l-1289-0.5c-7.1,0-12.8-5.7-12.8-12.8c0-7.1,5.7-12.8,12.8-12.8l1289,0.5
						c7.1,0,12.8,5.7,12.8,12.8C2027.5,1474.4,2021.7,1480.2,2014.7,1480.2z"/>
				</g>
			</g>
			<g>
				<g>
					<g>
						<path fill="#DF72FF" d="M540.1,1323.8l-56.9-287.3c-8.3-12.6-17.2-0.2-17.2-0.2L406,1323.8c-4.1,0.8-7.2,4.4-7.2,8.7
							c0,4.9,4,8.9,8.9,8.9h130.7c4.9,0,8.9-4,8.9-8.9C547.2,1328.2,544.2,1324.7,540.1,1323.8z"/>
						<path fill="#662D91" d="M538.3,1342.9H407.7c-5.7,0-10.3-4.6-10.3-10.4c0-4.6,3.1-8.7,7.5-9.9l59.8-286.9l0.2-0.3
							c0.2-0.2,4.5-6.1,10.2-6.1c3.5,0,6.7,2.1,9.5,6.3l0.2,0.2l56.8,286.7c4.3,1.3,7.3,5.3,7.3,9.9
							C548.7,1338.2,544,1342.9,538.3,1342.9z M467.4,1036.9l-60.1,288.1l-1,0.2c-3.5,0.7-6,3.7-6,7.3c0,4.1,3.3,7.4,7.4,7.4h130.7
							c4.1,0,7.4-3.3,7.4-7.4c0-3.5-2.5-6.5-5.9-7.2l-1-0.2l-57.1-288c-2.1-3.2-4.4-4.8-6.8-4.8
							C471.3,1032.3,468.1,1036,467.4,1036.9z"/>
					</g>
				</g>
				<g>
					<g>
						<path fill="#E8ABFF" d="M474.7,1032.5c-3.9,1.1-6.8,5-6.8,5l-59.4,288.9c-4.2-0.7-6.4,2.4-6.4,5.4c0,4.7,4.1,6.1,9.7,6.1h62.8
							V1032.5z"/>
					</g>
				</g>
				<g>
					<g>
						<path fill="#662D91" d="M489.8,1291.5c0.9,0.9,2.6,0.9,3.5,0c0.9-0.9,0.5-2.3-0.4-3.1l-16.9-16.9l0-30l13.8,13.8
							c0.9,0.9,2.3,0.9,3.1,0c0.9-0.9,0.9-2.3,0-3.1l-16.9-16.9l0-36c0-1.7-1.4-3.2-3.2-3.2c-1.7,0-3.2,1.4-3.2,3.2v36l-16.9,16.9
							c-0.9,0.9-0.9,2.3,0,3.1c0.9,0.9,2.3,0.9,3.1,0l13.8-13.8l0,30l-16.9,16.9c-0.9,0.9-0.9,2.3,0,3.1c0.9,0.9,2.3,0.9,3.1,0
							l13.8-13.8l0,29l-16.9,16.9c-0.9,0.9-0.9,2.3,0,3.1c0.9,0.9,2.3,0.9,3.1,0l13.8-13.8l0,78.8c0,1.7,1.4,3.2,3.2,3.2
							c1.7,0,3.2-1.4,3.2-3.2l0-78.8l13.8,13.8c0.9,0.9,2.3,0.9,3.1,0c0.9-0.9,0.9-2.3,0-3.1l-16.9-16.9l0-29L489.8,1291.5z"/>
						<path fill="#662D91" d="M472.9,1395.5c-2,0-3.7-1.7-3.7-3.7l0-77.5l-12.9,12.9c-1,1-2.8,1-3.9,0c-1.1-1.1-1.1-2.8,0-3.9
							l16.7-16.7l0-27.5l-12.9,12.9c-1,1-2.8,1-3.9,0c-0.5-0.5-0.8-1.2-0.8-1.9c0-0.7,0.3-1.4,0.8-1.9l16.7-16.7l0-28.5l-12.9,12.9
							c-1,1-2.8,1-3.9,0c-1.1-1.1-1.1-2.8,0-3.9l16.7-16.7v-35.8c0-2,1.7-3.7,3.7-3.7c2,0,3.7,1.7,3.7,3.7l0,35.8l16.7,16.7
							c0.5,0.5,0.8,1.2,0.8,1.9c0,0.7-0.3,1.4-0.8,1.9c-1,1-2.8,1-3.9,0l-12.9-12.9l0,28.6l16.7,16.7c1,1,1.5,2.8,0.4,3.9
							c-0.5,0.5-1.3,0.8-2.1,0.8c0,0,0,0,0,0c-0.8,0-1.6-0.3-2.1-0.8l-12.9-12.9l0,27.5l16.7,16.7c0.5,0.5,0.8,1.2,0.8,1.9
							c0,0.7-0.3,1.4-0.8,1.9c-1,1-2.8,1-3.9,0l-12.9-12.9l0,77.5C476.6,1393.8,474.9,1395.5,472.9,1395.5z M470.3,1311.7l0,80.1
							c0,1.5,1.2,2.6,2.6,2.6c1.5,0,2.6-1.2,2.6-2.6l0-80.1l14.7,14.7c0.6,0.6,1.7,0.6,2.4,0c0.3-0.3,0.5-0.7,0.5-1.2
							c0-0.4-0.2-0.9-0.5-1.2l-17-17l0-30.5l14.7,14.7c0.3,0.3,0.8,0.5,1.4,0.5l0,0c0.6,0,1.1-0.2,1.4-0.5c0.6-0.6,0.3-1.7-0.4-2.4
							l-17.1-17.1l0-31.5l14.7,14.7c0.6,0.6,1.7,0.6,2.4,0c0.3-0.3,0.5-0.7,0.5-1.2c0-0.4-0.2-0.9-0.5-1.2l-17.1-17.1l0-36.3
							c0-1.5-1.2-2.6-2.6-2.6c-1.5,0-2.6,1.2-2.6,2.6v36.3l-17.1,17c-0.7,0.7-0.7,1.7,0,2.4c0.6,0.6,1.7,0.6,2.4,0l14.7-14.7l0,31.5
							l-17.1,17.1c-0.3,0.3-0.5,0.7-0.5,1.2c0,0.4,0.2,0.9,0.5,1.2c0.6,0.6,1.7,0.6,2.4,0l14.7-14.7l0,30.5l-17.1,17.1
							c-0.7,0.7-0.7,1.7,0,2.4c0.6,0.6,1.7,0.6,2.4,0L470.3,1311.7z"/>
					</g>
				</g>
				<g>
					<path fill="#662D91" d="M484.5,1111.5c-0.2,0-0.4,0-0.5-0.1c-9.8-5.6-9.9-17.2-9.9-17.7c0-0.6,0.5-1.1,1.1-1.1
						c0.6,0,1.1,0.5,1.1,1.1c0,0.1,0.1,10.8,8.8,15.8c0.5,0.3,0.7,1,0.4,1.5C485.2,1111.3,484.8,1111.5,484.5,1111.5z"/>
				</g>
				<g>
					<path fill="#662D91" d="M506.1,1214.8c-0.2,0-0.3,0-0.5-0.1c-8.8-4.4-9.6-13.8-9.7-14.2c0-0.6,0.4-1.1,1-1.2
						c0.6,0,1.1,0.4,1.2,1c0,0.1,0.8,8.5,8.5,12.3c0.5,0.3,0.8,0.9,0.5,1.5C506.9,1214.6,506.5,1214.8,506.1,1214.8z"/>
				</g>
				<g>
					<path fill="#662D91" d="M456.5,1169.4c-0.4,0-0.8-0.2-1-0.6c-0.3-0.5-0.1-1.2,0.5-1.5c6.4-3.2,7.8-12.3,7.8-12.4
						c0.1-0.6,0.6-1,1.3-0.9c0.6,0.1,1,0.7,0.9,1.3c-0.1,0.4-1.6,10.4-9,14.1C456.9,1169.4,456.7,1169.4,456.5,1169.4z"/>
				</g>
				<g>
					<path fill="#662D91" d="M426.5,1297.1c-0.4,0-0.7-0.2-0.9-0.5c-0.3-0.5-0.2-1.2,0.3-1.5c7.1-4.5,8.5-16.8,8.6-16.9
						c0.1-0.6,0.6-1.1,1.2-1c0.6,0.1,1.1,0.6,1,1.2c-0.1,0.5-1.5,13.4-9.6,18.6C427,1297,426.8,1297.1,426.5,1297.1z"/>
				</g>
			</g>
			<g>
				<g>
					<path fill="#006837" d="M2014.7,1464.5l-1289-0.5c-7.1,0-12.8-5.7-12.8-12.8c0-7.1,5.7-12.8,12.8-12.8l1289,0.5
						c7.1,0,12.8,5.7,12.8,12.8C2027.5,1458.8,2021.7,1464.5,2014.7,1464.5z"/>
				</g>
			</g>
			<g>
				<g>
					<g>
						<path fill="#DF72FF" d="M960.2,1511.9l-27.1-136.7c-3.9-6-8.2-0.1-8.2-0.1l-28.5,136.8c-2,0.4-3.4,2.1-3.4,4.1
							c0,2.3,1.9,4.2,4.2,4.2h62.2c2.3,0,4.2-1.9,4.2-4.2C963.6,1514,962.2,1512.3,960.2,1511.9z"/>
						<path fill="#662D91" d="M959.4,1521h-62.2c-2.7,0-4.9-2.2-4.9-4.9c0-2.2,1.5-4.1,3.5-4.7l28.5-136.5l0.1-0.1
							c0.1-0.1,2.1-2.9,4.9-2.9c1.7,0,3.2,1,4.5,3l0.1,0.1l0,0.1l27,136.3c2,0.6,3.5,2.5,3.5,4.7
							C964.3,1518.7,962.1,1521,959.4,1521z M925.6,1375.4L897,1512.5l-0.5,0.1c-1.7,0.3-2.9,1.8-2.9,3.5c0,1.9,1.6,3.5,3.5,3.5
							h62.2c1.9,0,3.5-1.6,3.5-3.5c0-1.7-1.2-3.1-2.8-3.4l-0.5-0.1l-0.1-0.5l-27.1-136.6c-1-1.5-2.1-2.3-3.2-2.3
							C927.5,1373.2,926,1374.9,925.6,1375.4z"/>
					</g>
				</g>
				<g>
					<g>
						<path fill="#E8ABFF" d="M929.1,1373.3c-1.9,0.5-3.2,2.4-3.2,2.4l-28.3,137.4c-2-0.3-3,1.1-3,2.5c0,2.2,2,2.9,4.6,2.9h29.9
							V1373.3z"/>
					</g>
				</g>
				<g>
					<g>
						<path fill="#662D91" d="M936.3,1496.5c0.4,0.4,1.3,0.4,1.7,0c0.4-0.4,0.2-1.1-0.2-1.5l-8-8v-14.3l6.6,6.6
							c0.4,0.4,1.1,0.4,1.5,0c0.4-0.4,0.4-1.1,0-1.5l-8-8l0-17.1c0-0.8-0.7-1.5-1.5-1.5c-0.8,0-1.5,0.7-1.5,1.5v17.1l-8,8
							c-0.4,0.4-0.4,1.1,0,1.5c0.4,0.4,1.1,0.4,1.5,0l6.6-6.6v14.3l-8,8c-0.4,0.4-0.4,1.1,0,1.5c0.4,0.4,1.1,0.4,1.5,0l6.6-6.6
							l0,13.8l-8,8c-0.4,0.4-0.4,1.1,0,1.5c0.4,0.4,1.1,0.4,1.5,0l6.6-6.6v37.5c0,0.8,0.7,1.5,1.5,1.5s1.5-0.7,1.5-1.5l0-37.5
							l6.6,6.6c0.4,0.4,1.1,0.4,1.5,0c0.4-0.4,0.4-1.1,0-1.5l-8-8V1490L936.3,1496.5z"/>
						<path fill="#662D91" d="M928.2,1546c-1,0-1.8-0.8-1.8-1.8v-36.9l-6.1,6.1c-0.5,0.5-1.3,0.5-1.8,0c-0.5-0.5-0.5-1.3,0-1.8l8-8
							l0-13.1l-6.1,6.1c-0.5,0.5-1.3,0.5-1.8,0c-0.5-0.5-0.5-1.3,0-1.8l8-8v-13.6l-6.1,6.1c-0.5,0.5-1.3,0.5-1.8,0
							c-0.5-0.5-0.5-1.3,0-1.8l8-8v-17c0-1,0.8-1.8,1.8-1.8c1,0,1.8,0.8,1.8,1.8l0,17l8,8c0.2,0.2,0.4,0.6,0.4,0.9
							c0,0.3-0.1,0.7-0.4,0.9c-0.5,0.5-1.3,0.5-1.8,0l-6.1-6.1v13.6l8,8c0.5,0.5,0.7,1.3,0.2,1.8c-0.2,0.2-0.6,0.4-1,0.4l0,0
							c-0.4,0-0.8-0.1-1-0.4l-6.1-6.1v13.1l8,8c0.2,0.2,0.4,0.6,0.4,0.9c0,0.3-0.1,0.7-0.4,0.9c-0.5,0.5-1.3,0.5-1.8,0l-6.1-6.1
							l0,36.9C930,1545.2,929.2,1546,928.2,1546z M927,1506.1v38.1c0,0.7,0.6,1.3,1.3,1.3c0.7,0,1.3-0.6,1.3-1.3l0-38.1l7,7
							c0.3,0.3,0.8,0.3,1.1,0c0.2-0.2,0.2-0.4,0.2-0.6c0-0.2-0.1-0.4-0.2-0.6l-8.1-8.1v-14.5l7,7c0.1,0.1,0.4,0.2,0.7,0.2l0,0
							c0.3,0,0.5-0.1,0.7-0.2c0.3-0.3,0.1-0.8-0.2-1.1l-8.1-8.1v-15l7,7c0.3,0.3,0.8,0.3,1.1,0c0.2-0.2,0.2-0.4,0.2-0.6
							c0-0.2-0.1-0.4-0.2-0.6l-8.1-8.1l0-17.2c0-0.7-0.6-1.3-1.3-1.3c-0.7,0-1.3,0.6-1.3,1.3v17.3l-0.1,0.1l-8,8
							c-0.3,0.3-0.3,0.8,0,1.1c0.3,0.3,0.8,0.3,1.1,0l7-7v15l-0.1,0.1l-8,8c-0.3,0.3-0.3,0.8,0,1.1c0.3,0.3,0.8,0.3,1.1,0l7-7
							l0,14.5l-0.1,0.1l-8,8c-0.3,0.3-0.3,0.8,0,1.1c0.3,0.3,0.8,0.3,1.1,0L927,1506.1z"/>
					</g>
				</g>
				<g>
					<path fill="#662D91" d="M933.7,1410.9c-0.1,0-0.2,0-0.3-0.1c-4.7-2.7-4.7-8.2-4.7-8.4c0-0.3,0.2-0.5,0.5-0.5h0
						c0.3,0,0.5,0.2,0.5,0.5c0,0.1,0.1,5.2,4.2,7.5c0.3,0.1,0.3,0.5,0.2,0.7C934.1,1410.8,933.9,1410.9,933.7,1410.9z"/>
				</g>
				<g>
					<path fill="#662D91" d="M944,1460c-0.1,0-0.2,0-0.2-0.1c-4.2-2.1-4.6-6.6-4.6-6.7c0-0.3,0.2-0.5,0.5-0.6c0.3,0,0.5,0.2,0.6,0.5
						c0,0,0.4,4,4,5.9c0.3,0.1,0.4,0.4,0.2,0.7C944.4,1459.9,944.2,1460,944,1460z"/>
				</g>
				<g>
					<path fill="#662D91" d="M920.5,1438.4c-0.2,0-0.4-0.1-0.5-0.3c-0.1-0.3,0-0.6,0.2-0.7c3-1.5,3.7-5.9,3.7-5.9
						c0-0.3,0.3-0.5,0.6-0.4c0.3,0,0.5,0.3,0.4,0.6c0,0.2-0.7,4.9-4.3,6.7C920.6,1438.4,920.5,1438.4,920.5,1438.4z"/>
				</g>
				<g>
					<path fill="#662D91" d="M906.2,1499.2c-0.2,0-0.3-0.1-0.4-0.2c-0.2-0.2-0.1-0.6,0.2-0.7c3.4-2.2,4.1-8,4.1-8
						c0-0.3,0.3-0.5,0.6-0.5c0.3,0,0.5,0.3,0.5,0.6c0,0.3-0.7,6.4-4.6,8.8C906.4,1499.2,906.3,1499.2,906.2,1499.2z"/>
				</g>
			</g>
			<g>
				<g>
					<g>
						<path fill="#FFAF23" d="M1322.8,1400.3c0,12.4,10.1,22.5,22.4,22.5h69.8l0,0c12.4,0,22.5-10.1,22.5-22.5s-10.1-22.5-22.5-22.5
							l0,0h-69.8C1332.9,1377.9,1322.8,1387.9,1322.8,1400.3z"/>
						<path fill="#603813" d="M1415.1,1423.8h-69.8c-12.9,0-23.4-10.5-23.4-23.4c0-12.9,10.5-23.4,23.4-23.4h69.8
							c12.9,0,23.4,10.5,23.4,23.4C1438.5,1413.3,1428,1423.8,1415.1,1423.8z M1345.3,1378.9c-11.8,0-21.5,9.6-21.5,21.5
							c0,11.8,9.6,21.5,21.5,21.5h69.8c11.9,0,21.5-9.6,21.5-21.5c0-11.8-9.6-21.5-21.5-21.5H1345.3z"/>
					</g>
				</g>
				<g>
					<g>
						<path fill="#FFCA76" d="M1374.6,1380.4h-31c-11,0-19.9,8.9-19.9,20c0,11,8.9,19.9,19.9,19.9h31V1380.4z"/>
					</g>
				</g>
				<g>
					<g>
						<path fill="#603813" d="M1382.5,1416.1c5.6-1.1,9.8-6,9.8-12c0-1-0.8-1.9-1.9-1.9c-1,0-1.9,0.8-1.9,1.9c0,0.1,0,0.2,0,0.3
							c-0.1,3.8-2.7,6.9-6.2,7.9l0-16.8c0-1.3-1.1-2.4-2.4-2.4c-1.3,0-2.4,1.1-2.4,2.4v16.8c-3.5-1-6-4.1-6.2-7.9c0-0.1,0-0.2,0-0.3
							c0-1-0.8-1.9-1.9-1.9c-1,0-1.9,0.8-1.9,1.9c0,5.9,4.2,10.9,9.8,12l0,24.4c-3.5-1-6-4.1-6.2-7.9c0-0.1,0-0.2,0-0.3
							c0-1-0.8-1.9-1.9-1.9c-1,0-1.9,0.8-1.9,1.9c0,5.9,4.2,10.9,9.8,12l0,94.4c0,1.3,1.1,2.4,2.4,2.4c1.3,0,2.4-1.1,2.4-2.4
							L1382.5,1416.1z"/>
					</g>
				</g>
				<g>
					<path fill="#603813" d="M1409.4,1400.4c-0.1,0-0.3,0-0.4-0.1c-0.3-0.2-0.4-0.7-0.2-1c1.5-2.2,2-4.2,1.5-6.1
						c-0.9-3.3-4.7-5-4.7-5.1c-0.4-0.2-0.5-0.6-0.4-1c0.2-0.4,0.6-0.5,1-0.4c0.2,0.1,4.4,2,5.5,6c0.6,2.3,0.1,4.8-1.7,7.3
						C1409.9,1400.3,1409.6,1400.4,1409.4,1400.4z"/>
				</g>
				<g>
					<path fill="#603813" d="M1354.7,1414c-0.1,0-0.2,0-0.3-0.1c-3.6-1.8-5.6-4-5.9-6.7c-0.6-4.3,3.5-8,3.7-8.1
						c0.3-0.3,0.8-0.2,1,0.1s0.2,0.8-0.1,1c0,0-3.7,3.3-3.2,6.8c0.3,2.1,2,4,5.1,5.6c0.4,0.2,0.5,0.6,0.3,1
						C1355.2,1413.8,1354.9,1414,1354.7,1414z"/>
				</g>
			</g>
			<g>
				<g>
					<g>
						<g>
							<path fill="#FFAF23" d="M699.4,1281.1c0,12.9,10.5,23.4,23.4,23.4h24.7l0,0c12.9,0,23.4-10.5,23.4-23.4
								c0-12.9-10.5-23.4-23.4-23.4l0,0h-24.7C709.9,1257.7,699.4,1268.2,699.4,1281.1z"/>
							<path fill="#603813" d="M747.5,1305.7h-24.7c-13.6,0-24.6-11-24.6-24.6c0-13.6,11-24.6,24.6-24.6h24.7
								c13.6,0,24.6,11,24.6,24.6C772.1,1294.7,761.1,1305.7,747.5,1305.7z M722.8,1258.9c-12.3,0-22.2,10-22.2,22.2
								c0,12.3,10,22.2,22.2,22.2h24.7c12.3,0,22.2-10,22.2-22.2c0-12.3-10-22.2-22.2-22.2H722.8z"/>
						</g>
					</g>
					<g>
						<g>
							<path fill="#FFCA76" d="M731,1260.9h-8c-11.1,0-20.2,9-20.2,20.2c0,11.1,9,20.2,20.2,20.2h8V1260.9z"/>
						</g>
					</g>
					<g>
						<g>
							<path fill="#603813" d="M732.4,1294.1c-6.5-1.3-11.4-7-11.4-13.8c0-1.2,1-2.1,2.1-2.1c1.2,0,2.1,1,2.1,2.1c0,0.1,0,0.2,0,0.4
								c0.2,4.3,3.1,7.9,7.1,9.1l0-19.4c0-1.5,1.2-2.7,2.7-2.7s2.7,1.2,2.7,2.7l0,19.4c4-1.1,7-4.8,7.1-9.1c0-0.1,0-0.2,0-0.4
								c0-1.2,1-2.1,2.1-2.1c1.2,0,2.1,1,2.1,2.1c0,6.8-4.9,12.5-11.3,13.8l0,90.1c0,1.5-1.2,2.7-2.7,2.7c-1.5,0-2.7-1.2-2.7-2.7
								L732.4,1294.1z"/>
						</g>
					</g>
					<g>
						<path fill="#603813" d="M757.9,1283.5c-0.2,0-0.3,0-0.5-0.2c-0.4-0.3-0.5-0.8-0.2-1.2c1.8-2.7,2.4-5.2,1.8-7.5
							c-1.1-4-5.7-6.2-5.8-6.2c-0.4-0.2-0.6-0.7-0.4-1.2c0.2-0.4,0.7-0.6,1.2-0.4c0.2,0.1,5.4,2.5,6.7,7.3c0.8,2.8,0.1,5.8-2,8.9
							C758.4,1283.4,758.1,1283.5,757.9,1283.5z"/>
					</g>
				</g>
			</g>
			<g>
				<g>
					<g>
						<path fill="#DF72FF" d="M1299.6,1511.9l-27.1-136.7c-3.9-6-8.2-0.1-8.2-0.1l-28.5,136.8c-2,0.4-3.4,2.1-3.4,4.1
							c0,2.3,1.9,4.2,4.2,4.2h62.2c2.3,0,4.2-1.9,4.2-4.2C1303,1514,1301.5,1512.3,1299.6,1511.9z"/>
						<path fill="#662D91" d="M1298.8,1521h-62.2c-2.7,0-4.9-2.2-4.9-4.9c0-2.2,1.5-4.1,3.5-4.7l28.5-136.5l0.1-0.1
							c0.1-0.1,2.1-2.9,4.9-2.9c1.7,0,3.2,1,4.5,3l0.1,0.1l0,0.1l27,136.3c2,0.6,3.5,2.5,3.5,4.7
							C1303.7,1518.7,1301.5,1521,1298.8,1521z M1265,1375.4l-28.6,137.1l-0.5,0.1c-1.7,0.3-2.9,1.8-2.9,3.5c0,1.9,1.6,3.5,3.5,3.5
							h62.2c1.9,0,3.5-1.6,3.5-3.5c0-1.7-1.2-3.1-2.8-3.4l-0.5-0.1l-0.1-0.5l-27.1-136.6c-1-1.5-2.1-2.3-3.2-2.3
							C1266.9,1373.2,1265.4,1374.9,1265,1375.4z"/>
					</g>
				</g>
				<g>
					<g>
						<path fill="#E8ABFF" d="M1268.5,1373.3c-1.9,0.5-3.2,2.4-3.2,2.4l-28.3,137.4c-2-0.3-3,1.1-3,2.5c0,2.2,2,2.9,4.6,2.9h29.9
							V1373.3z"/>
					</g>
				</g>
				<g>
					<g>
						<path fill="#662D91" d="M1275.7,1496.5c0.4,0.4,1.3,0.4,1.7,0c0.4-0.4,0.2-1.1-0.2-1.5l-8-8v-14.3l6.6,6.6
							c0.4,0.4,1.1,0.4,1.5,0c0.4-0.4,0.4-1.1,0-1.5l-8-8l0-17.1c0-0.8-0.7-1.5-1.5-1.5c-0.8,0-1.5,0.7-1.5,1.5v17.1l-8,8
							c-0.4,0.4-0.4,1.1,0,1.5c0.4,0.4,1.1,0.4,1.5,0l6.6-6.6v14.3l-8,8c-0.4,0.4-0.4,1.1,0,1.5c0.4,0.4,1.1,0.4,1.5,0l6.6-6.6
							l0,13.8l-8,8c-0.4,0.4-0.4,1.1,0,1.5c0.4,0.4,1.1,0.4,1.5,0l6.6-6.6v37.5c0,0.8,0.7,1.5,1.5,1.5c0.8,0,1.5-0.7,1.5-1.5l0-37.5
							l6.6,6.6c0.4,0.4,1.1,0.4,1.5,0c0.4-0.4,0.4-1.1,0-1.5l-8-8l0-13.8L1275.7,1496.5z"/>
						<path fill="#662D91" d="M1267.6,1546c-1,0-1.8-0.8-1.8-1.8v-36.9l-6.1,6.1c-0.5,0.5-1.3,0.5-1.8,0c-0.5-0.5-0.5-1.3,0-1.8l8-8
							l0-13.1l-6.1,6.1c-0.5,0.5-1.3,0.5-1.8,0c-0.2-0.2-0.4-0.6-0.4-0.9c0-0.3,0.1-0.7,0.4-0.9l8-8v-13.6l-6.1,6.1
							c-0.5,0.5-1.3,0.5-1.8,0c-0.5-0.5-0.5-1.3,0-1.8l8-8v-17c0-1,0.8-1.8,1.8-1.8c1,0,1.8,0.8,1.8,1.8l0,17l8,8
							c0.2,0.2,0.4,0.6,0.4,0.9c0,0.3-0.1,0.7-0.4,0.9c-0.5,0.5-1.3,0.5-1.8,0l-6.1-6.1v13.6l8,8c0.2,0.2,0.4,0.6,0.5,0.9
							c0.1,0.4,0,0.7-0.3,1c-0.2,0.2-0.6,0.4-1,0.4l0,0c-0.4,0-0.8-0.1-1-0.4l-6.1-6.1l0,13.1l8,8c0.2,0.2,0.4,0.6,0.4,0.9
							c0,0.3-0.1,0.7-0.4,0.9c-0.5,0.5-1.3,0.5-1.8,0l-6.1-6.1l0,36.9C1269.4,1545.2,1268.6,1546,1267.6,1546z M1266.4,1506.1v38.1
							c0,0.7,0.6,1.3,1.3,1.3c0.7,0,1.3-0.6,1.3-1.3l0-38.1l7,7c0.3,0.3,0.8,0.3,1.1,0c0.2-0.2,0.2-0.4,0.2-0.6
							c0-0.2-0.1-0.4-0.2-0.6l-8.1-8.1l0-14.5l7,7c0.1,0.1,0.4,0.2,0.7,0.2l0,0c0.3,0,0.5-0.1,0.7-0.2c0.2-0.2,0.2-0.4,0.1-0.5
							c0-0.2-0.2-0.4-0.3-0.6l-8.1-8.1v-15l7,7c0.3,0.3,0.8,0.3,1.1,0c0.2-0.2,0.2-0.4,0.2-0.6c0-0.2-0.1-0.4-0.2-0.6l-8.1-8.1
							l0-17.2c0-0.7-0.6-1.3-1.3-1.3c-0.7,0-1.3,0.6-1.3,1.3v17.3l-0.1,0.1l-8,8c-0.3,0.3-0.3,0.8,0,1.1c0.3,0.3,0.8,0.3,1.1,0l7-7
							v15l-0.1,0.1l-8,8c-0.2,0.2-0.2,0.4-0.2,0.6c0,0.2,0.1,0.4,0.2,0.6c0.3,0.3,0.8,0.3,1.1,0l7-7l0,14.5l-0.1,0.1l-8,8
							c-0.3,0.3-0.3,0.8,0,1.1c0.3,0.3,0.8,0.3,1.1,0L1266.4,1506.1z"/>
					</g>
				</g>
				<g>
					<path fill="#662D91" d="M1273.1,1410.9c-0.1,0-0.2,0-0.3-0.1c-4.7-2.7-4.7-8.2-4.7-8.4c0-0.3,0.2-0.5,0.5-0.5h0
						c0.3,0,0.5,0.2,0.5,0.5c0,0.1,0.1,5.2,4.2,7.5c0.3,0.1,0.3,0.5,0.2,0.7C1273.5,1410.8,1273.3,1410.9,1273.1,1410.9z"/>
				</g>
				<g>
					<path fill="#662D91" d="M1283.4,1460c-0.1,0-0.2,0-0.2-0.1c-4.2-2.1-4.6-6.6-4.6-6.7c0-0.3,0.2-0.5,0.5-0.6
						c0.3,0,0.5,0.2,0.6,0.5c0,0,0.4,4,4,5.9c0.3,0.1,0.4,0.4,0.2,0.7C1283.8,1459.9,1283.6,1460,1283.4,1460z"/>
				</g>
				<g>
					<path fill="#662D91" d="M1259.8,1438.4c-0.2,0-0.4-0.1-0.5-0.3c-0.1-0.3,0-0.6,0.2-0.7c3-1.5,3.7-5.9,3.7-5.9
						c0-0.3,0.3-0.5,0.6-0.4c0.3,0,0.5,0.3,0.4,0.6c0,0.2-0.7,4.9-4.3,6.7C1260,1438.4,1259.9,1438.4,1259.8,1438.4z"/>
				</g>
				<g>
					<path fill="#662D91" d="M1245.6,1499.2c-0.2,0-0.3-0.1-0.4-0.2c-0.2-0.2-0.1-0.6,0.2-0.7c3.4-2.2,4.1-8,4.1-8
						c0-0.3,0.3-0.5,0.6-0.5c0.3,0,0.5,0.3,0.5,0.6c0,0.3-0.7,6.4-4.6,8.8C1245.8,1499.2,1245.7,1499.2,1245.6,1499.2z"/>
				</g>
			</g>
			<g>
				<g>
					<g>
						<circle fill="#FFAF23" cx="1020.7" cy="1452.9" r="50.3"/>
						<path fill="#603813" d="M1020.7,1503.9c-28.1,0-51-22.9-51-51s22.9-51,51-51c28.1,0,51,22.9,51,51
							S1048.8,1503.9,1020.7,1503.9z M1020.7,1403.3c-27.3,0-49.6,22.2-49.6,49.6s22.2,49.6,49.6,49.6c27.3,0,49.6-22.2,49.6-49.6
							S1048,1403.3,1020.7,1403.3z"/>
					</g>
				</g>
				<g>
					<path fill="#FFCA76" d="M1020.9,1403.9c-27,0-49,21.9-49,49c0,27,21.9,49,49,49V1403.9z"/>
				</g>
				<g>
					<g>
						<path fill="#603813" d="M1029.7,1462.6c0-0.8-0.6-1.4-1.4-1.4c-0.8,0-1.4,0.6-1.4,1.4c0,0.1,0,0.2,0,0.2
							c-0.1,2.8-2,5.1-4.5,5.8l0-18c4.1-0.8,7.3-4.5,7.3-8.8c0-0.8-0.6-1.4-1.4-1.4c-0.8,0-1.4,0.6-1.4,1.4c0,0.1,0,0.2,0,0.2
							c-0.1,2.8-2,5.1-4.5,5.8v-12.4c0-1-0.8-1.7-1.7-1.7c-1,0-1.7,0.8-1.7,1.7v12.4c-2.6-0.7-4.4-3-4.5-5.8c0-0.1,0-0.1,0-0.2
							c0-0.8-0.6-1.4-1.4-1.4c-0.8,0-1.4,0.6-1.4,1.4c0,4.4,3.1,8,7.3,8.8l0,18c-2.6-0.7-4.4-3-4.5-5.8c0-0.1,0-0.1,0-0.2
							c0-0.8-0.6-1.4-1.4-1.4c-0.8,0-1.4,0.6-1.4,1.4c0,4.4,3.1,8,7.3,8.8l0,19.4c-2.6-0.7-4.5-3-4.5-5.8c0-0.1,0-0.1,0-0.2
							c0-0.8-0.6-1.4-1.4-1.4c-0.8,0-1.4,0.6-1.4,1.4c0,4.4,3.1,8,7.3,8.8l0,47.5c0,1,0.8,1.7,1.7,1.7c1,0,1.7-0.8,1.7-1.7l0-47.5
							c4.1-0.8,7.3-4.5,7.3-8.8c0-0.8-0.6-1.4-1.4-1.4c-0.8,0-1.4,0.6-1.4,1.4c0,0.1,0,0.2,0,0.2c-0.1,2.8-2,5.1-4.5,5.8v-19.4
							C1026.5,1470.6,1029.7,1467,1029.7,1462.6z"/>
					</g>
				</g>
				<g>
					<path fill="#603813" d="M1055.2,1432.7c-0.1,0-0.2,0-0.4-0.1c-0.2-0.2-0.2-0.5-0.1-0.8c1.3-1.5,1.8-3,1.6-4.3
						c-0.5-2.5-3.3-4-3.3-4c-0.3-0.1-0.4-0.5-0.2-0.7c0.1-0.3,0.5-0.4,0.7-0.2c0.1,0.1,3.3,1.8,3.8,4.7c0.3,1.7-0.3,3.5-1.8,5.3
						C1055.5,1432.7,1055.3,1432.7,1055.2,1432.7z"/>
				</g>
				<g>
					<path fill="#603813" d="M1043.3,1450.3c-0.1,0-0.2,0-0.3-0.1c-0.2-0.2-0.3-0.5-0.1-0.7c1.1-1.6,1.5-3.1,1.1-4.5
						c-0.7-2.4-3.5-3.7-3.5-3.7c-0.3-0.1-0.4-0.4-0.3-0.7c0.1-0.3,0.4-0.4,0.7-0.3c0.1,0.1,3.3,1.5,4.1,4.4c0.5,1.7,0.1,3.5-1.2,5.4
						C1043.7,1450.2,1043.5,1450.3,1043.3,1450.3z"/>
				</g>
				<g>
					<path fill="#603813" d="M1003,1460.3c-0.1,0-0.2,0-0.2-0.1c-2.6-1.3-4.1-3-4.3-4.9c-0.4-3.2,2.6-5.9,2.7-6
						c0.2-0.2,0.6-0.2,0.8,0c0.2,0.2,0.2,0.6,0,0.8c0,0-2.7,2.4-2.4,5c0.2,1.6,1.5,2.9,3.8,4.1c0.3,0.1,0.4,0.5,0.2,0.7
						C1003.3,1460.2,1003.2,1460.3,1003,1460.3z"/>
				</g>
				<g>
					<path fill="#603813" d="M1061.9,1463.6c-0.1,0-0.3,0-0.4-0.1c-0.2-0.2-0.2-0.5,0-0.8c5.2-5.7,0.2-10.9,0-11.1
						c-0.2-0.2-0.2-0.5,0-0.8c0.2-0.2,0.5-0.2,0.8,0c0.1,0.1,5.9,6.1,0,12.6C1062.2,1463.6,1062,1463.6,1061.9,1463.6z"/>
				</g>
				<g>
					<path fill="#603813" d="M979.1,1445.8c-0.2,0-0.5-0.2-0.5-0.4c-1.8-7.3,3.5-10.1,3.6-10.1c0.3-0.1,0.6,0,0.7,0.2
						c0.1,0.3,0,0.6-0.2,0.7c-0.2,0.1-4.6,2.5-3,8.9c0.1,0.3-0.1,0.6-0.4,0.6C979.2,1445.7,979.1,1445.8,979.1,1445.8z"/>
				</g>
				<g>
					<path fill="#603813" d="M991.4,1482.1c0,0-0.1,0-0.1,0c-3.3-0.9-5.5-2.4-6.6-4.6c-1.5-3.2,0-6.4,0.1-6.6
						c0.1-0.3,0.4-0.4,0.7-0.3c0.3,0.1,0.4,0.4,0.3,0.7c0,0-1.4,3-0.1,5.7c0.9,1.9,2.9,3.3,5.9,4c0.3,0.1,0.5,0.4,0.4,0.7
						C991.8,1481.9,991.6,1482.1,991.4,1482.1z"/>
				</g>
			</g>
			<g>
				<g>
					<g>
						<circle fill="#FFAF23" cx="1722" cy="1440.7" r="57"/>
						<path fill="#603813" d="M1722,1498.5c-31.9,0-57.8-25.9-57.8-57.8s25.9-57.8,57.8-57.8s57.8,25.9,57.8,57.8
							S1753.9,1498.5,1722,1498.5z M1722,1384.5c-31,0-56.2,25.2-56.2,56.2c0,31,25.2,56.2,56.2,56.2s56.2-25.2,56.2-56.2
							C1778.2,1409.7,1753,1384.5,1722,1384.5z"/>
					</g>
				</g>
				<g>
					<path fill="#FFCA76" d="M1722.3,1385.2c-30.6,0-55.5,24.8-55.5,55.5c0,30.6,24.8,55.5,55.5,55.5V1385.2z"/>
				</g>
				<g>
					<g>
						<path fill="#603813" d="M1732.2,1451.7c0-0.9-0.7-1.6-1.5-1.6s-1.5,0.7-1.5,1.6c0,0.1,0,0.2,0,0.3c-0.1,3.1-2.3,5.8-5.2,6.6
							l0-20.4c4.7-0.9,8.2-5,8.2-10c0-0.9-0.7-1.5-1.5-1.5s-1.5,0.7-1.5,1.5c0,0.1,0,0.2,0,0.3c-0.1,3.1-2.3,5.8-5.2,6.6v-14.1
							c0-1.1-0.9-2-2-2c-1.1,0-2,0.9-2,2l0,14.1c-2.9-0.8-5-3.5-5.2-6.6c0-0.1,0-0.2,0-0.3c0-0.9-0.7-1.5-1.6-1.5s-1.5,0.7-1.5,1.5
							c0,5,3.5,9.1,8.2,10l0,20.4c-2.9-0.8-5-3.5-5.2-6.6c0-0.1,0-0.2,0-0.3c0-0.9-0.7-1.6-1.6-1.6s-1.5,0.7-1.5,1.6
							c0,5,3.5,9.1,8.2,10v21.9c-2.9-0.8-5-3.5-5.2-6.6c0-0.1,0-0.2,0-0.3c0-0.9-0.7-1.5-1.6-1.5s-1.5,0.7-1.5,1.5
							c0,5,3.5,9.1,8.2,10l0,53.8c0,1.1,0.9,2,2,2c1.1,0,2-0.9,2-2l0-53.8c4.7-0.9,8.2-5,8.2-10c0-0.9-0.7-1.5-1.5-1.5
							s-1.5,0.7-1.5,1.5c0,0.1,0,0.2,0,0.3c-0.1,3.1-2.3,5.8-5.2,6.6v-21.9C1728.7,1460.8,1732.2,1456.6,1732.2,1451.7z"/>
					</g>
				</g>
				<g>
					<path fill="#603813" d="M1761.1,1417.9c-0.1,0-0.3,0-0.4-0.1c-0.3-0.2-0.3-0.6-0.1-0.9c1.5-1.7,2.1-3.4,1.8-4.9
						c-0.5-2.8-3.7-4.5-3.7-4.5c-0.3-0.2-0.4-0.5-0.3-0.8c0.2-0.3,0.5-0.4,0.8-0.3c0.2,0.1,3.7,2,4.3,5.4c0.4,2-0.3,4-2.1,6
						C1761.5,1417.8,1761.3,1417.9,1761.1,1417.9z"/>
				</g>
				<g>
					<path fill="#603813" d="M1747.7,1437.7c-0.1,0-0.2,0-0.3-0.1c-0.3-0.2-0.3-0.6-0.2-0.8c1.3-1.8,1.7-3.5,1.2-5.1
						c-0.8-2.8-3.9-4.2-4-4.2c-0.3-0.1-0.4-0.5-0.3-0.8c0.1-0.3,0.5-0.4,0.8-0.3c0.2,0.1,3.7,1.7,4.6,5c0.5,1.9,0.1,4-1.4,6.1
						C1748.1,1437.6,1747.9,1437.7,1747.7,1437.7z"/>
				</g>
				<g>
					<path fill="#603813" d="M1702,1449.1c-0.1,0-0.2,0-0.3-0.1c-3-1.5-4.6-3.4-4.9-5.6c-0.5-3.6,3-6.7,3.1-6.8
						c0.3-0.2,0.6-0.2,0.9,0.1c0.2,0.3,0.2,0.6-0.1,0.9c0,0-3.1,2.8-2.7,5.7c0.2,1.8,1.7,3.3,4.3,4.6c0.3,0.2,0.4,0.5,0.3,0.8
						C1702.4,1448.9,1702.2,1449.1,1702,1449.1z"/>
				</g>
				<g>
					<path fill="#603813" d="M1768.7,1452.9c-0.1,0-0.3-0.1-0.4-0.2c-0.2-0.2-0.3-0.6,0-0.9c5.9-6.4,0.3-12.3,0-12.6
						c-0.2-0.2-0.2-0.6,0-0.9c0.2-0.2,0.6-0.2,0.9,0c0.1,0.1,6.7,6.9,0,14.2C1769.1,1452.8,1768.9,1452.9,1768.7,1452.9z"/>
				</g>
				<g>
					<path fill="#603813" d="M1674.9,1432.6c-0.3,0-0.5-0.2-0.6-0.5c-2-8.3,4-11.5,4-11.5c0.3-0.2,0.7,0,0.8,0.3
						c0.2,0.3,0,0.7-0.3,0.8c-0.2,0.1-5.2,2.8-3.4,10.1c0.1,0.3-0.1,0.7-0.4,0.7C1675,1432.6,1674.9,1432.6,1674.9,1432.6z"/>
				</g>
				<g>
					<path fill="#603813" d="M1688.8,1473.7c0,0-0.1,0-0.2,0c-3.8-1-6.3-2.7-7.5-5.2c-1.7-3.6,0-7.3,0.1-7.5
						c0.1-0.3,0.5-0.4,0.8-0.3c0.3,0.1,0.4,0.5,0.3,0.8c0,0-1.5,3.4-0.1,6.4c1,2.2,3.3,3.7,6.7,4.6c0.3,0.1,0.5,0.4,0.4,0.7
						C1689.3,1473.6,1689.1,1473.7,1688.8,1473.7z"/>
				</g>
			</g>
			<g>
				<g>
					<g>
						<g>
							<path fill="#FFAF23" d="M1092.6,1451.9c0,10.6,8.6,19.2,19.2,19.2h20.3l0,0c10.6,0,19.2-8.6,19.2-19.2
								c0-10.6-8.6-19.2-19.2-19.2l0,0h-20.3C1101.2,1432.7,1092.6,1441.3,1092.6,1451.9z"/>
							<path fill="#603813" d="M1132,1472.1h-20.3c-11.1,0-20.2-9-20.2-20.2c0-11.1,9-20.2,20.2-20.2h20.3c11.1,0,20.2,9,20.2,20.2
								C1152.2,1463,1143.1,1472.1,1132,1472.1z M1111.8,1433.7c-10,0-18.2,8.2-18.2,18.2c0,10,8.2,18.2,18.2,18.2h20.3
								c10,0,18.2-8.2,18.2-18.2c0-10.1-8.2-18.2-18.2-18.2H1111.8z"/>
						</g>
					</g>
					<g>
						<g>
							<path fill="#FFCA76" d="M1118.5,1435.4h-6.6c-9.1,0-16.5,7.4-16.5,16.5s7.4,16.5,16.5,16.5h6.6V1435.4z"/>
						</g>
					</g>
					<g>
						<g>
							<path fill="#603813" d="M1119.7,1462.6c-5.3-1-9.3-5.7-9.3-11.3c0-1,0.8-1.8,1.8-1.8s1.8,0.8,1.8,1.8c0,0.1,0,0.2,0,0.3
								c0.1,3.5,2.5,6.5,5.8,7.5l0-15.9c0-1.2,1-2.2,2.2-2.2c1.2,0,2.2,1,2.2,2.2l0,15.9c3.3-0.9,5.7-3.9,5.8-7.4c0-0.1,0-0.2,0-0.3
								c0-1,0.8-1.8,1.8-1.8c1,0,1.8,0.8,1.8,1.8c0,5.6-4,10.3-9.3,11.3l0,73.8c0,1.2-1,2.2-2.2,2.2c-1.2,0-2.2-1-2.2-2.2
								L1119.7,1462.6z"/>
						</g>
					</g>
					<g>
						<path fill="#603813" d="M1140.5,1453.9c-0.1,0-0.3,0-0.4-0.1c-0.3-0.2-0.4-0.7-0.2-1c1.5-2.2,2-4.2,1.5-6.1
							c-0.9-3.3-4.7-5-4.7-5.1c-0.4-0.2-0.5-0.6-0.4-1c0.2-0.4,0.6-0.5,1-0.4c0.2,0.1,4.4,2,5.5,6c0.6,2.3,0.1,4.8-1.7,7.3
							C1141,1453.8,1140.7,1453.9,1140.5,1453.9z"/>
					</g>
				</g>
			</g>
			<g>
				<g>
					<g>
						<g>
							<path fill="#FFAF23" d="M1458.2,1447c0,10.6,8.6,19.2,19.2,19.2h20.3l0,0c10.6,0,19.2-8.6,19.2-19.2
								c0-10.6-8.6-19.2-19.2-19.2l0,0h-20.3C1466.8,1427.8,1458.2,1436.4,1458.2,1447z"/>
							<path fill="#603813" d="M1497.7,1467.1h-20.3c-11.1,0-20.2-9-20.2-20.2c0-11.1,9-20.2,20.2-20.2h20.3
								c11.1,0,20.2,9,20.2,20.2C1517.8,1458.1,1508.8,1467.1,1497.7,1467.1z M1477.4,1428.7c-10.1,0-18.2,8.2-18.2,18.2
								c0,10,8.2,18.2,18.2,18.2h20.3c10,0,18.2-8.2,18.2-18.2c0-10.1-8.2-18.2-18.2-18.2H1477.4z"/>
						</g>
					</g>
					<g>
						<g>
							<path fill="#FFCA76" d="M1484.1,1430.4h-6.6c-9.1,0-16.5,7.4-16.5,16.5s7.4,16.5,16.5,16.5h6.6V1430.4z"/>
						</g>
					</g>
					<g>
						<g>
							<path fill="#603813" d="M1485.3,1457.6c-5.3-1-9.3-5.7-9.3-11.3c0-1,0.8-1.8,1.8-1.8s1.8,0.8,1.8,1.8c0,0.1,0,0.2,0,0.3
								c0.1,3.6,2.5,6.5,5.8,7.5l0-15.9c0-1.2,1-2.2,2.2-2.2c1.2,0,2.2,1,2.2,2.2l0,15.9c3.3-0.9,5.7-3.9,5.8-7.5c0-0.1,0-0.2,0-0.3
								c0-1,0.8-1.8,1.8-1.8c1,0,1.8,0.8,1.8,1.8c0,5.6-4,10.3-9.3,11.3l0,73.8c0,1.2-1,2.2-2.2,2.2c-1.2,0-2.2-1-2.2-2.2
								L1485.3,1457.6z"/>
						</g>
					</g>
					<g>
						<path fill="#603813" d="M1506.1,1448.9c-0.1,0-0.3,0-0.4-0.1c-0.3-0.2-0.4-0.7-0.2-1c1.5-2.2,2-4.2,1.5-6.1
							c-0.9-3.3-4.7-5-4.7-5.1c-0.4-0.2-0.5-0.6-0.4-1c0.2-0.4,0.6-0.5,1-0.4c0.2,0.1,4.4,2,5.5,6c0.6,2.3,0.1,4.8-1.7,7.3
							C1506.6,1448.8,1506.4,1448.9,1506.1,1448.9z"/>
					</g>
				</g>
			</g>
			<g>
				<g>
					<g>
						<path fill="#DF72FF" d="M1637.2,1511.5l-27.1-136.7c-3.9-6-8.2-0.1-8.2-0.1l-28.5,136.8c-2,0.4-3.4,2.1-3.4,4.1
							c0,2.3,1.9,4.2,4.2,4.2h62.2c2.3,0,4.2-1.9,4.2-4.2C1640.6,1513.6,1639.1,1511.9,1637.2,1511.5z"/>
						<path fill="#662D91" d="M1636.4,1520.6h-62.2c-2.7,0-4.9-2.2-4.9-4.9c0-2.2,1.5-4.1,3.5-4.7l28.5-136.5l0.1-0.1
							c0.1-0.1,2.1-2.9,4.9-2.9c1.7,0,3.2,1,4.5,3l0.1,0.1l0,0.1l27,136.3c2,0.6,3.5,2.5,3.5,4.7
							C1641.3,1518.4,1639.1,1520.6,1636.4,1520.6z M1602.6,1375l-28.6,137.1l-0.5,0.1c-1.7,0.3-2.9,1.8-2.9,3.5
							c0,1.9,1.6,3.5,3.5,3.5h62.2c1.9,0,3.5-1.6,3.5-3.5c0-1.7-1.2-3.1-2.8-3.4l-0.5-0.1l-0.1-0.5l-27.1-136.6
							c-1-1.5-2.1-2.3-3.2-2.3C1604.5,1372.8,1603,1374.6,1602.6,1375z"/>
					</g>
				</g>
				<g>
					<g>
						<path fill="#E8ABFF" d="M1606.1,1372.9c-1.9,0.5-3.2,2.4-3.2,2.4l-28.3,137.4c-2-0.3-3,1.1-3,2.5c0,2.2,2,2.9,4.6,2.9h29.9
							V1372.9z"/>
					</g>
				</g>
				<g>
					<g>
						<path fill="#662D91" d="M1613.3,1496.2c0.4,0.4,1.3,0.4,1.7,0c0.4-0.4,0.2-1.1-0.2-1.5l-8-8v-14.3l6.6,6.6
							c0.4,0.4,1.1,0.4,1.5,0c0.4-0.4,0.4-1.1,0-1.5l-8-8l0-17.1c0-0.8-0.7-1.5-1.5-1.5c-0.8,0-1.5,0.7-1.5,1.5v17.1l-8,8
							c-0.4,0.4-0.4,1.1,0,1.5c0.4,0.4,1.1,0.4,1.5,0l6.6-6.6v14.3l-8,8c-0.4,0.4-0.4,1.1,0,1.5c0.4,0.4,1.1,0.4,1.5,0l6.6-6.6
							l0,13.8l-8,8c-0.4,0.4-0.4,1.1,0,1.5c0.4,0.4,1.1,0.4,1.5,0l6.6-6.6v37.5c0,0.8,0.7,1.5,1.5,1.5c0.8,0,1.5-0.7,1.5-1.5l0-37.5
							l6.6,6.6c0.4,0.4,1.1,0.4,1.5,0c0.4-0.4,0.4-1.1,0-1.5l-8-8l0-13.8L1613.3,1496.2z"/>
						<path fill="#662D91" d="M1605.2,1545.6c-1,0-1.8-0.8-1.8-1.8V1507l-6.1,6.1c-0.5,0.5-1.3,0.5-1.8,0c-0.2-0.2-0.4-0.6-0.4-0.9
							c0-0.3,0.1-0.7,0.4-0.9l8-8l0-13.1l-6.1,6.1c-0.5,0.5-1.3,0.5-1.8,0c-0.2-0.2-0.4-0.6-0.4-0.9c0-0.3,0.1-0.7,0.4-0.9l8-8V1473
							l-6.1,6.1c-0.5,0.5-1.3,0.5-1.8,0c-0.2-0.2-0.4-0.6-0.4-0.9c0-0.3,0.1-0.7,0.4-0.9l8-8v-17c0-1,0.8-1.8,1.8-1.8
							s1.8,0.8,1.8,1.8l0,17l8,8c0.2,0.2,0.4,0.6,0.4,0.9c0,0.3-0.1,0.7-0.4,0.9c-0.5,0.5-1.3,0.5-1.8,0l-6.1-6.1v13.6l8,8
							c0.5,0.5,0.7,1.3,0.2,1.8c-0.2,0.2-0.6,0.4-1,0.4l0,0c-0.4,0-0.8-0.1-1-0.4l-6.1-6.1l0,13.1l8,8c0.2,0.2,0.4,0.6,0.4,0.9
							s-0.1,0.7-0.4,0.9c-0.5,0.5-1.3,0.5-1.8,0l-6.1-6.1l0,36.9C1607,1544.8,1606.2,1545.6,1605.2,1545.6z M1604,1505.8v38.1
							c0,0.7,0.6,1.3,1.3,1.3c0.7,0,1.3-0.6,1.3-1.3l0-38.1l7,7c0.3,0.3,0.8,0.3,1.1,0c0.2-0.2,0.2-0.4,0.2-0.6s-0.1-0.4-0.2-0.6
							l-8.1-8.1l0-14.5l7,7c0.1,0.1,0.4,0.2,0.7,0.2l0,0c0.3,0,0.5-0.1,0.7-0.2c0.3-0.3,0.1-0.8-0.2-1.1l-8.1-8.1v-15l7,7
							c0.3,0.3,0.8,0.3,1.1,0c0.2-0.2,0.2-0.4,0.2-0.6c0-0.2-0.1-0.4-0.2-0.6l-8.1-8.1l0-17.2c0-0.7-0.6-1.3-1.3-1.3
							s-1.3,0.6-1.3,1.3v17.3l-0.1,0.1l-8,8c-0.2,0.2-0.2,0.4-0.2,0.6c0,0.2,0.1,0.4,0.2,0.6c0.3,0.3,0.8,0.3,1.1,0l7-7v15l-0.1,0.1
							l-8,8c-0.2,0.2-0.2,0.4-0.2,0.6c0,0.2,0.1,0.4,0.2,0.6c0.3,0.3,0.8,0.3,1.1,0l7-7l0,14.5l-0.1,0.1l-8,8
							c-0.2,0.2-0.2,0.4-0.2,0.6c0,0.2,0.1,0.4,0.2,0.6c0.3,0.3,0.8,0.3,1.1,0L1604,1505.8z"/>
					</g>
				</g>
				<g>
					<path fill="#662D91" d="M1610.7,1410.5c-0.1,0-0.2,0-0.3-0.1c-4.7-2.7-4.7-8.2-4.7-8.4c0-0.3,0.2-0.5,0.5-0.5c0,0,0,0,0,0
						c0.3,0,0.5,0.2,0.5,0.5c0,0.1,0.1,5.2,4.2,7.5c0.3,0.1,0.3,0.5,0.2,0.7C1611.1,1410.4,1610.9,1410.5,1610.7,1410.5z"/>
				</g>
				<g>
					<path fill="#662D91" d="M1621,1459.6c-0.1,0-0.2,0-0.2-0.1c-4.2-2.1-4.6-6.6-4.6-6.7c0-0.3,0.2-0.5,0.5-0.6
						c0.3,0,0.5,0.2,0.6,0.5c0,0,0.4,4,4,5.9c0.3,0.1,0.4,0.4,0.2,0.7C1621.4,1459.5,1621.2,1459.6,1621,1459.6z"/>
				</g>
				<g>
					<path fill="#662D91" d="M1597.5,1438.1c-0.2,0-0.4-0.1-0.5-0.3c-0.1-0.3,0-0.6,0.2-0.7c3-1.5,3.7-5.9,3.7-5.9
						c0-0.3,0.3-0.5,0.6-0.4c0.3,0,0.5,0.3,0.4,0.6c0,0.2-0.7,4.9-4.3,6.7C1597.6,1438.1,1597.5,1438.1,1597.5,1438.1z"/>
				</g>
				<g>
					<path fill="#662D91" d="M1583.2,1498.8c-0.2,0-0.3-0.1-0.4-0.2c-0.2-0.2-0.1-0.6,0.2-0.7c3.4-2.2,4.1-8,4.1-8
						c0-0.3,0.3-0.5,0.6-0.5c0.3,0,0.5,0.3,0.5,0.6c0,0.3-0.7,6.4-4.6,8.8C1583.4,1498.8,1583.3,1498.8,1583.2,1498.8z"/>
				</g>
			</g>
			<g>
				<g>
					<g>
						<g>
							<path fill="#EFFFDD" d="M2149.8,738.6h-55.6l0.5-3.7c0.2-1.7,0.3-3,0.3-4.3c0-17.9-14.5-32.4-32.4-32.4
								c-5.8,0-11.5,1.6-16.5,4.6l-3.8,2.3l-1.1-4.3c-5.9-24.3-27.6-41.3-52.7-41.3l-0.8,0l-0.9,0c-25.1,0-46.7,17-52.7,41.3l-1,4.3
								l-3.8-2.3c-5-3-10.7-4.6-16.5-4.6c-17.9,0-32.4,14.5-32.4,32.4c0,1.3,0.1,2.7,0.3,4.3l0.5,3.7h-55.6V732h48.3
								c0-0.5,0-1,0-1.5c0-21.5,17.5-38.9,38.9-38.9c5.6,0,11.1,1.2,16.2,3.5c8-25.1,31.2-42.3,57.9-42.3c0.2,0,0.4,0,0.6,0l0.3,0
								l0.2,0c0.2,0,0.4,0,0.6,0c26.7,0,49.9,17.2,57.9,42.3c5.1-2.3,10.6-3.5,16.2-3.5c21.5,0,38.9,17.5,38.9,38.9c0,0.5,0,1,0,1.5
								h48.3V738.6z"/>
							<path fill="#EFFFDD" d="M2151.2,740h-58.7l0.7-5.3c0.2-1.6,0.3-2.9,0.3-4.1c0-17.1-13.9-31-31-31c-5.6,0-11,1.5-15.8,4.4
								l-5.4,3.2l-1.5-6.2c-5.8-23.7-26.9-40.2-51.3-40.2l-0.7,0l-0.9,0c-24.4,0-45.5,16.5-51.3,40.2l-1.5,6.2l-5.4-3.2
								c-4.8-2.8-10.3-4.4-15.8-4.4c-17.1,0-31,13.9-31,31c0,1.2,0.1,2.6,0.3,4.1l0.7,5.3h-58.7v-9.4h48.3c0,0,0-0.1,0-0.1
								c0-22.3,18.1-40.4,40.4-40.4c5.2,0,10.5,1,15.3,3c8.6-25.1,32-41.8,58.8-41.8c0.2,0,0.4,0,0.6,0l0.3,0l0.1,0
								c0.2,0,0.4,0,0.6,0c26.7,0,50.1,16.7,58.8,41.8c4.8-2,10.1-3,15.3-3c22.3,0,40.4,18.1,40.4,40.4c0,0,0,0.1,0,0.1h48.3V740z
								 M2095.8,737.2h52.6v-3.7H2100l0.1-1.5c0-0.5,0-1,0-1.4c0-20.7-16.8-37.5-37.5-37.5c-5.3,0-10.7,1.2-15.6,3.4l-1.5,0.7
								l-0.5-1.5c-7.8-24.7-30.6-41.3-56.5-41.3c-0.2,0-0.4,0-0.5,0l-0.2,0l-0.4,0c-0.2,0-0.4,0-0.5,0c-26,0-48.7,16.6-56.5,41.3
								l-0.5,1.5l-1.5-0.7c-4.9-2.2-10.2-3.4-15.6-3.4c-20.7,0-37.5,16.8-37.5,37.5c0,0.5,0,0.9,0,1.4l0.1,1.5H1827v3.7h52.6
								l-0.3-2.1c-0.2-1.7-0.3-3.2-0.3-4.5c0-18.7,15.2-33.8,33.8-33.8c6.1,0,12,1.6,17.3,4.8l2.1,1.3l0.6-2.4
								c6.1-25,28.3-42.4,54-42.4l0.9,0l0.7,0c25.8,0,48,17.4,54.1,42.4l0.6,2.4l2.2-1.3c5.2-3.1,11.2-4.8,17.3-4.8
								c18.7,0,33.8,15.2,33.8,33.8c0,1.4-0.1,2.8-0.3,4.5L2095.8,737.2z"/>
						</g>
					</g>
				</g>
				<g>
					<g>
						<g>
							<line fill="#EFFFDD" x1="1945" y1="756.3" x2="2027.7" y2="756.3"/>
							<rect x="1945" y="754.9" fill="#EFFFDD" width="82.6" height="2.8"/>
						</g>
					</g>
					<g>
						<g>
							<path fill="#EFFFDD" d="M2027.7,760.3H1945c-2.2,0-4.1-1.8-4.1-4.1c0-2.2,1.8-4.1,4.1-4.1h82.6c2.2,0,4.1,1.8,4.1,4.1
								C2031.7,758.5,2029.9,760.3,2027.7,760.3z"/>
							<path fill="#EFFFDD" d="M2027.7,761.8H1945c-3,0-5.5-2.5-5.5-5.5c0-3,2.5-5.5,5.5-5.5h82.6c3,0,5.5,2.5,5.5,5.5
								C2033.2,759.3,2030.7,761.8,2027.7,761.8z M1945,753.6c-1.5,0-2.6,1.2-2.6,2.6s1.2,2.6,2.6,2.6h82.6c1.5,0,2.6-1.2,2.6-2.6
								s-1.2-2.6-2.6-2.6H1945z"/>
						</g>
					</g>
				</g>
			</g>
			<g>
				<g>
					<g>
						<g>
							<path fill="#EFFFDD" d="M959.1,738.6h-55.6l0.5-3.7c0.2-1.7,0.3-3,0.3-4.3c0-17.9-14.5-32.4-32.4-32.4
								c-5.8,0-11.5,1.6-16.5,4.6l-3.8,2.3l-1-4.3c-5.9-24.3-27.6-41.3-52.7-41.3l-0.8,0l-0.9,0c-25.1,0-46.7,17-52.7,41.3l-1,4.3
								l-3.8-2.3c-5-3-10.7-4.6-16.5-4.6c-17.9,0-32.4,14.5-32.4,32.4c0,1.3,0.1,2.7,0.3,4.3l0.5,3.7h-55.6V732h48.3
								c0-0.5,0-1,0-1.5c0-21.5,17.5-38.9,38.9-38.9c5.6,0,11.1,1.2,16.2,3.5c8-25.1,31.2-42.3,57.9-42.3c0.2,0,0.4,0,0.6,0l0.3,0
								l0.2,0c0.2,0,0.4,0,0.6,0c26.7,0,49.9,17.2,57.9,42.3c5.1-2.3,10.6-3.5,16.2-3.5c21.5,0,38.9,17.5,38.9,38.9c0,0.5,0,1,0,1.5
								h48.3V738.6z"/>
							<path fill="#EFFFDD" d="M960.5,740h-58.7l0.7-5.3c0.2-1.6,0.3-2.9,0.3-4.1c0-17.1-13.9-31-31-31c-5.6,0-11,1.5-15.8,4.4
								l-5.4,3.2l-1.5-6.2c-5.8-23.7-26.9-40.2-51.3-40.2l-0.7,0l-0.9,0c-24.4,0-45.5,16.5-51.3,40.2l-1.5,6.2l-5.4-3.2
								c-4.8-2.8-10.2-4.4-15.8-4.4c-17.1,0-31,13.9-31,31c0,1.2,0.1,2.5,0.3,4.1l0.7,5.3h-58.7v-9.4h48.3c0,0,0-0.1,0-0.1
								c0-22.3,18.1-40.4,40.4-40.4c5.2,0,10.5,1,15.3,3c8.6-25.1,32-41.8,58.8-41.8c0.2,0,0.4,0,0.6,0l0.3,0l0.1,0
								c0.2,0,0.4,0,0.6,0c26.7,0,50.1,16.7,58.8,41.8c4.8-2,10.1-3,15.3-3c22.3,0,40.4,18.1,40.4,40.4c0,0,0,0.1,0,0.1h48.3V740z
								 M905.1,737.2h52.6v-3.7h-48.4l0.1-1.5c0-0.5,0-1,0-1.4c0-20.7-16.8-37.5-37.5-37.5c-5.3,0-10.7,1.2-15.6,3.4l-1.5,0.7
								l-0.5-1.5c-7.8-24.7-30.6-41.3-56.5-41.3c-0.2,0-0.4,0-0.5,0l-0.2,0l-0.4,0c-0.2,0-0.4,0-0.5,0c-26,0-48.7,16.6-56.5,41.3
								l-0.5,1.5l-1.5-0.7c-4.9-2.2-10.2-3.4-15.6-3.4c-20.7,0-37.5,16.8-37.5,37.5c0,0.5,0,0.9,0,1.4l0.1,1.5h-48.4v3.7h52.6
								l-0.3-2.1c-0.2-1.7-0.3-3.2-0.3-4.5c0-18.7,15.2-33.8,33.8-33.8c6.1,0,12,1.6,17.3,4.8l2.1,1.3l0.6-2.4
								c6.1-25,28.3-42.4,54-42.4l0.9,0l0.7,0c25.8,0,48,17.4,54.1,42.4l0.6,2.4l2.2-1.3c5.2-3.1,11.2-4.8,17.3-4.8
								c18.7,0,33.8,15.2,33.8,33.8c0,1.4-0.1,2.8-0.3,4.5L905.1,737.2z"/>
						</g>
					</g>
				</g>
				<g>
					<g>
						<g>
							<line fill="#EFFFDD" x1="754.4" y1="756.3" x2="837" y2="756.3"/>
							<rect x="754.4" y="754.9" fill="#EFFFDD" width="82.6" height="2.8"/>
						</g>
					</g>
					<g>
						<g>
							<path fill="#EFFFDD" d="M837,760.3h-82.6c-2.2,0-4.1-1.8-4.1-4.1c0-2.2,1.8-4.1,4.1-4.1H837c2.2,0,4.1,1.8,4.1,4.1
								C841.1,758.5,839.2,760.3,837,760.3z"/>
							<path fill="#EFFFDD" d="M837,761.8h-82.6c-3,0-5.5-2.5-5.5-5.5c0-3,2.5-5.5,5.5-5.5H837c3,0,5.5,2.5,5.5,5.5
								C842.5,759.3,840,761.8,837,761.8z M754.4,753.6c-1.5,0-2.6,1.2-2.6,2.6c0,1.5,1.2,2.6,2.6,2.6H837c1.5,0,2.6-1.2,2.6-2.6
								c0-1.5-1.2-2.6-2.6-2.6H754.4z"/>
						</g>
					</g>
				</g>
			</g>
		</g>
		<g>
			<g>
				<path fill="#DAF2C6" d="M1715.1,1745.1c1.9,0,1.9-3,0-3S1713.1,1745.1,1715.1,1745.1L1715.1,1745.1z"/>
			</g>
		</g>
	</g>
</g>
</svg>
